<svg width="32" height="26" viewBox="0 0 32 26" fill="none" xmlns="http://www.w3.org/2000/svg">
<path d="M13.875 9.5625C13.875 11.625 13.4219 13.5156 12.5156 15.2344C11.6094 16.9219 10.5469 18.3906 9.32812 19.6406C8.07812 20.9219 6.70312 22.0781 5.20312 23.1094C3.70312 24.1094 2.5 24.8438 1.59375 25.3125L0 22.5469C1.28125 21.7969 2.5 21.0312 3.65625 20.25C4.84375 19.4375 5.75 18.6719 6.375 17.9531C7.21875 17.0156 7.89062 16.0469 8.39062 15.0469C8.89062 14.0156 9.20312 12.6719 9.32812 11.0156H7.07812C5.10938 11.0156 3.57812 10.5156 2.48438 9.51562C1.39062 8.51563 0.84375 7.125 0.84375 5.34375C0.84375 4.0625 1.34375 2.85938 2.34375 1.73438C3.34375 0.578125 4.70312 0 6.42188 0C9.07812 0 10.9844 0.890625 12.1406 2.67188C13.2969 4.42187 13.875 6.71875 13.875 9.5625ZM31.2188 9.5625C31.2188 11.625 30.7656 13.5156 29.8594 15.2344C28.9531 16.9219 27.8906 18.3906 26.6719 19.6406C25.4219 20.9219 24.0469 22.0781 22.5469 23.1094C21.0469 24.1094 19.8438 24.8438 18.9375 25.3125L17.3438 22.5469C18.625 21.7969 19.8438 21.0312 21 20.25C22.1875 19.4375 23.0938 18.6719 23.7188 17.9531C24.5625 17.0156 25.2344 16.0469 25.7344 15.0469C26.2344 14.0156 26.5469 12.6719 26.6719 11.0156H24.4219C22.4531 11.0156 20.9219 10.5156 19.8281 9.51562C18.7344 8.51563 18.1875 7.125 18.1875 5.34375C18.1875 4.0625 18.6875 2.85938 19.6875 1.73438C20.6875 0.578125 22.0469 0 23.7656 0C26.4219 0 28.3281 0.890625 29.4844 2.67188C30.6406 4.42187 31.2188 6.71875 31.2188 9.5625Z" fill="white" fill-opacity="0.1"/>
</svg>
