<svg width="32" height="26" viewBox="0 0 32 26" fill="none" xmlns="http://www.w3.org/2000/svg">
<path d="M13.875 2.8125C12.4062 3.65625 11.2188 4.39063 10.3125 5.01562C9.40625 5.60938 8.48438 6.40625 7.54688 7.40625C6.67188 8.34375 6 9.32812 5.53125 10.3594C5.0625 11.3906 4.73438 12.7187 4.54688 14.3438H6.79688C8.73438 14.3438 10.25 14.8281 11.3438 15.7969C12.4688 16.7344 13.0312 18.125 13.0312 19.9688C13.0312 21.2812 12.5312 22.5156 11.5312 23.6719C10.5625 24.7969 9.21875 25.3594 7.5 25.3594C4.8125 25.3594 2.89062 24.4844 1.73438 22.7344C0.578125 20.9531 0 18.625 0 15.75C0 13.7188 0.4375 11.875 1.3125 10.2188C2.1875 8.53125 3.25 7.03125 4.5 5.71875C5.78125 4.375 7.14062 3.23438 8.57812 2.29688C10.0156 1.35938 11.2188 0.59375 12.1875 0L13.875 2.8125ZM31.2188 2.8125C29.75 3.65625 28.5625 4.39063 27.6562 5.01562C26.75 5.60938 25.8281 6.40625 24.8906 7.40625C23.9844 8.375 23.2969 9.375 22.8281 10.4062C22.3906 11.4062 22.0781 12.7187 21.8906 14.3438H24.1406C26.0781 14.3438 27.5938 14.8281 28.6875 15.7969C29.8125 16.7344 30.375 18.125 30.375 19.9688C30.375 21.2812 29.875 22.5156 28.875 23.6719C27.9062 24.7969 26.5625 25.3594 24.8438 25.3594C22.1562 25.3594 20.2344 24.4844 19.0781 22.7344C17.9219 20.9531 17.3438 18.625 17.3438 15.75C17.3438 13.7188 17.7812 11.875 18.6562 10.2188C19.5312 8.53125 20.5938 7.03125 21.8438 5.71875C23.125 4.375 24.4844 3.23438 25.9219 2.29688C27.3594 1.35938 28.5625 0.59375 29.5312 0L31.2188 2.8125Z" fill="white" fill-opacity="0.1"/>
</svg>
