<svg width="405" height="327" viewBox="0 0 405 327" fill="none" xmlns="http://www.w3.org/2000/svg">
<g clip-path="url(#clip0_161_2650)">
<g opacity="0.2" filter="url(#filter0_f_161_2650)">
<path d="M11.4 49L0.88 21H4.52L13.36 45.44L22.28 21H25.84L15.32 49H11.4ZM33.4913 49.48C31.8646 49.48 30.5046 49.2 29.4113 48.64C28.3179 48.0533 27.5046 47.2933 26.9713 46.36C26.4379 45.4 26.1713 44.36 26.1713 43.24C26.1713 41.88 26.5179 40.7333 27.2113 39.8C27.9313 38.84 28.9313 38.12 30.2113 37.64C31.5179 37.1333 33.0513 36.88 34.8113 36.88H40.1313C40.1313 35.6267 39.9313 34.5867 39.5313 33.76C39.1579 32.9067 38.5979 32.2667 37.8513 31.84C37.1313 31.4133 36.2246 31.2 35.1313 31.2C33.8513 31.2 32.7446 31.52 31.8113 32.16C30.8779 32.8 30.3046 33.7467 30.0913 35H26.6513C26.8113 33.56 27.2913 32.36 28.0913 31.4C28.9179 30.4133 29.9579 29.6667 31.2113 29.16C32.4646 28.6267 33.7713 28.36 35.1313 28.36C36.9979 28.36 38.5446 28.7067 39.7713 29.4C41.0246 30.0667 41.9579 31.0133 42.5713 32.24C43.1846 33.44 43.4913 34.8667 43.4913 36.52V49H40.4913L40.2913 45.44C40.0246 46 39.6779 46.5333 39.2513 47.04C38.8513 47.52 38.3713 47.9467 37.8113 48.32C37.2513 48.6667 36.6113 48.9467 35.8913 49.16C35.1979 49.3733 34.3979 49.48 33.4913 49.48ZM34.0113 46.64C34.9446 46.64 35.7846 46.4533 36.5313 46.08C37.3046 45.68 37.9579 45.1467 38.4913 44.48C39.0246 43.7867 39.4246 43.0267 39.6913 42.2C39.9846 41.3733 40.1313 40.5067 40.1313 39.6V39.48H35.0913C33.7846 39.48 32.7313 39.64 31.9313 39.96C31.1313 40.2533 30.5579 40.68 30.2113 41.24C29.8646 41.7733 29.6913 42.3867 29.6913 43.08C29.6913 43.8 29.8513 44.4267 30.1713 44.96C30.5179 45.4933 31.0113 45.9067 31.6513 46.2C32.3179 46.4933 33.1046 46.64 34.0113 46.64ZM48.2891 49V20.2H51.6491V49H48.2891ZM57.1153 49V28.84H60.4753V49H57.1153ZM58.7953 24.56C58.1286 24.56 57.5686 24.3467 57.1153 23.92C56.6886 23.4667 56.4753 22.9067 56.4753 22.24C56.4753 21.5733 56.6886 21.04 57.1153 20.64C57.5686 20.2133 58.1286 20 58.7953 20C59.4353 20 59.982 20.2133 60.4353 20.64C60.8886 21.04 61.1153 21.5733 61.1153 22.24C61.1153 22.9067 60.8886 23.4667 60.4353 23.92C59.982 24.3467 59.4353 24.56 58.7953 24.56ZM74.8847 49.48C72.938 49.48 71.2314 49.0267 69.7647 48.12C68.298 47.1867 67.1647 45.92 66.3647 44.32C65.5647 42.72 65.1647 40.9067 65.1647 38.88C65.1647 36.8533 65.5647 35.0533 66.3647 33.48C67.1647 31.88 68.298 30.6267 69.7647 29.72C71.258 28.8133 72.978 28.36 74.9247 28.36C76.578 28.36 78.018 28.6933 79.2447 29.36C80.498 30.0267 81.458 30.96 82.1247 32.16V20.2H85.4847V49H82.4447L82.1647 45.68C81.738 46.3467 81.1914 46.9733 80.5247 47.56C79.858 48.12 79.058 48.5867 78.1247 48.96C77.1914 49.3067 76.1114 49.48 74.8847 49.48ZM75.2847 46.56C76.618 46.56 77.7914 46.24 78.8047 45.6C79.818 44.96 80.6047 44.08 81.1647 42.96C81.7247 41.8133 82.0047 40.4667 82.0047 38.92C82.0047 37.4 81.7247 36.0667 81.1647 34.92C80.6047 33.7733 79.818 32.88 78.8047 32.24C77.7914 31.6 76.618 31.28 75.2847 31.28C73.978 31.28 72.818 31.6 71.8047 32.24C70.7914 32.88 70.0047 33.7733 69.4447 34.92C68.8847 36.0667 68.6047 37.4 68.6047 38.92C68.6047 40.4667 68.8847 41.8133 69.4447 42.96C70.0047 44.08 70.7914 44.96 71.8047 45.6C72.818 46.24 73.978 46.56 75.2847 46.56ZM97.2428 49.48C95.6161 49.48 94.2561 49.2 93.1628 48.64C92.0695 48.0533 91.2561 47.2933 90.7228 46.36C90.1895 45.4 89.9228 44.36 89.9228 43.24C89.9228 41.88 90.2695 40.7333 90.9628 39.8C91.6828 38.84 92.6828 38.12 93.9628 37.64C95.2695 37.1333 96.8028 36.88 98.5628 36.88H103.883C103.883 35.6267 103.683 34.5867 103.283 33.76C102.909 32.9067 102.349 32.2667 101.603 31.84C100.883 31.4133 99.9761 31.2 98.8828 31.2C97.6028 31.2 96.4961 31.52 95.5628 32.16C94.6295 32.8 94.0561 33.7467 93.8428 35H90.4028C90.5628 33.56 91.0428 32.36 91.8428 31.4C92.6695 30.4133 93.7095 29.6667 94.9628 29.16C96.2161 28.6267 97.5228 28.36 98.8828 28.36C100.749 28.36 102.296 28.7067 103.523 29.4C104.776 30.0667 105.709 31.0133 106.323 32.24C106.936 33.44 107.243 34.8667 107.243 36.52V49H104.243L104.043 45.44C103.776 46 103.429 46.5333 103.003 47.04C102.603 47.52 102.123 47.9467 101.563 48.32C101.003 48.6667 100.363 48.9467 99.6428 49.16C98.9495 49.3733 98.1495 49.48 97.2428 49.48ZM97.7628 46.64C98.6961 46.64 99.5361 46.4533 100.283 46.08C101.056 45.68 101.709 45.1467 102.243 44.48C102.776 43.7867 103.176 43.0267 103.443 42.2C103.736 41.3733 103.883 40.5067 103.883 39.6V39.48H98.8428C97.5361 39.48 96.4828 39.64 95.6828 39.96C94.8828 40.2533 94.3095 40.68 93.9628 41.24C93.6161 41.7733 93.4428 42.3867 93.4428 43.08C93.4428 43.8 93.6028 44.4267 93.9228 44.96C94.2695 45.4933 94.7628 45.9067 95.4028 46.2C96.0695 46.4933 96.8561 46.64 97.7628 46.64ZM119.414 49C118.214 49 117.174 48.8133 116.294 48.44C115.414 48.0667 114.734 47.44 114.254 46.56C113.8 45.6533 113.574 44.44 113.574 42.92V31.68H110.054V28.84H113.574L114.014 23.96H116.934V28.84H122.774V31.68H116.934V42.92C116.934 44.1733 117.187 45.0267 117.694 45.48C118.2 45.9067 119.094 46.12 120.374 46.12H122.534V49H119.414ZM127.078 49V28.84H130.438V49H127.078ZM128.758 24.56C128.091 24.56 127.531 24.3467 127.078 23.92C126.651 23.4667 126.438 22.9067 126.438 22.24C126.438 21.5733 126.651 21.04 127.078 20.64C127.531 20.2133 128.091 20 128.758 20C129.398 20 129.944 20.2133 130.398 20.64C130.851 21.04 131.078 21.5733 131.078 22.24C131.078 22.9067 130.851 23.4667 130.398 23.92C129.944 24.3467 129.398 24.56 128.758 24.56ZM144.967 49.48C143.101 49.48 141.421 49.0533 139.927 48.2C138.434 47.32 137.261 46.0933 136.407 44.52C135.554 42.92 135.127 41.0667 135.127 38.96C135.127 36.8 135.554 34.9333 136.407 33.36C137.287 31.76 138.474 30.5333 139.967 29.68C141.487 28.8 143.181 28.36 145.047 28.36C146.967 28.36 148.661 28.8 150.127 29.68C151.621 30.5333 152.794 31.76 153.647 33.36C154.527 34.9333 154.967 36.7867 154.967 38.92C154.967 41.0533 154.527 42.92 153.647 44.52C152.767 46.0933 151.581 47.32 150.087 48.2C148.594 49.0533 146.887 49.48 144.967 49.48ZM145.007 46.6C146.154 46.6 147.221 46.32 148.207 45.76C149.194 45.1733 149.994 44.3067 150.607 43.16C151.221 42.0133 151.527 40.6 151.527 38.92C151.527 37.2133 151.221 35.8 150.607 34.68C150.021 33.5333 149.234 32.68 148.247 32.12C147.287 31.5333 146.221 31.24 145.047 31.24C143.927 31.24 142.861 31.5333 141.847 32.12C140.861 32.68 140.061 33.5333 139.447 34.68C138.861 35.8 138.567 37.2133 138.567 38.92C138.567 40.6 138.861 42.0133 139.447 43.16C140.061 44.3067 140.847 45.1733 141.807 45.76C142.794 46.32 143.861 46.6 145.007 46.6ZM159.278 49V28.84H162.318L162.478 32.36C163.118 31.1067 164.025 30.1333 165.198 29.44C166.398 28.72 167.758 28.36 169.278 28.36C170.851 28.36 172.211 28.68 173.358 29.32C174.505 29.9333 175.398 30.88 176.038 32.16C176.678 33.4133 176.998 35.0133 176.998 36.96V49H173.638V37.32C173.638 35.2933 173.185 33.7733 172.278 32.76C171.398 31.7467 170.145 31.24 168.518 31.24C167.398 31.24 166.398 31.52 165.518 32.08C164.638 32.6133 163.931 33.4 163.398 34.44C162.891 35.4533 162.638 36.72 162.638 38.24V49H159.278ZM213.392 49L198.152 33.48C196.925 32.2533 196.045 31.1333 195.512 30.12C194.979 29.1067 194.712 27.9867 194.712 26.76C194.712 25.56 195.005 24.4933 195.592 23.56C196.179 22.6 197.005 21.8533 198.072 21.32C199.165 20.7867 200.472 20.52 201.992 20.52C203.459 20.52 204.725 20.8 205.792 21.36C206.885 21.8933 207.725 22.64 208.312 23.6C208.899 24.56 209.179 25.6667 209.152 26.92H205.832C205.832 25.72 205.445 24.8133 204.672 24.2C203.925 23.56 203.032 23.24 201.992 23.24C200.765 23.24 199.792 23.5733 199.072 24.24C198.379 24.88 198.032 25.7067 198.032 26.72C198.032 27.5733 198.272 28.4133 198.752 29.24C199.232 30.0667 199.925 30.9733 200.832 31.96L217.632 49H213.392ZM200.432 49.48C198.539 49.48 196.872 49.1333 195.432 48.44C194.019 47.72 192.912 46.72 192.112 45.44C191.339 44.16 190.952 42.6533 190.952 40.92C190.952 39.5867 191.219 38.36 191.752 37.24C192.312 36.0933 193.139 35.0933 194.232 34.24C195.325 33.36 196.659 32.6533 198.232 32.12L199.512 31.68L201.272 33.88L199.752 34.4C197.912 35.0667 196.539 35.9333 195.632 37C194.752 38.0667 194.312 39.3333 194.312 40.8C194.312 41.8933 194.565 42.88 195.072 43.76C195.605 44.64 196.339 45.3333 197.272 45.84C198.205 46.3467 199.285 46.6 200.512 46.6C202.085 46.6 203.472 46.2667 204.672 45.6C205.899 44.9067 207.139 43.7867 208.392 42.24C208.952 41.5467 209.525 40.7467 210.112 39.84C210.699 38.9067 211.325 37.8667 211.992 36.72L213.232 34.52H216.792L214.992 37.72C214.272 39.0533 213.552 40.2667 212.832 41.36C212.139 42.4533 211.432 43.4267 210.712 44.28C209.192 46.12 207.605 47.4533 205.952 48.28C204.325 49.08 202.485 49.48 200.432 49.48ZM231.472 49V21H235.392L245.272 40.56L255.192 21H259.152V49H255.792V27L246.552 45.08H244.032L234.832 27.08V49H231.472ZM273.105 49L262.585 21H266.225L275.065 45.44L283.985 21H287.545L277.025 49H273.105ZM291.063 49V21H300.183C302.396 21 304.209 21.3733 305.623 22.12C307.063 22.84 308.116 23.8133 308.783 25.04C309.476 26.2667 309.823 27.6667 309.823 29.24C309.823 30.76 309.476 32.1467 308.783 33.4C308.116 34.6267 307.076 35.6133 305.663 36.36C304.249 37.1067 302.423 37.48 300.183 37.48H294.423V49H291.063ZM294.423 34.64H300.143C302.383 34.64 303.983 34.1467 304.943 33.16C305.903 32.1733 306.383 30.8667 306.383 29.24C306.383 27.5067 305.903 26.1733 304.943 25.24C303.983 24.28 302.383 23.8 300.143 23.8H294.423V34.64Z" fill="white"/>
</g>
<g opacity="0.4" filter="url(#filter1_f_161_2650)">
<path d="M1.2 113L11.52 85H15.08L25.36 113H21.8L13.28 89.2L4.72 113H1.2ZM5.92 105.8L6.88 103.08H19.56L20.52 105.8H5.92ZM35.8528 113.48C34.3061 113.48 32.9461 113.173 31.7728 112.56C30.6261 111.947 29.7328 111 29.0928 109.72C28.4795 108.44 28.1728 106.84 28.1728 104.92V92.84H31.5328V104.56C31.5328 106.56 31.9728 108.067 32.8528 109.08C33.7328 110.093 34.9728 110.6 36.5728 110.6C37.6928 110.6 38.7061 110.333 39.6128 109.8C40.5195 109.24 41.2261 108.453 41.7328 107.44C42.2661 106.4 42.5328 105.133 42.5328 103.64V92.84H45.8928V113H42.8528L42.6528 109.48C42.0395 110.733 41.1328 111.72 39.9328 112.44C38.7328 113.133 37.3728 113.48 35.8528 113.48ZM59.9425 113.48C57.9958 113.48 56.2892 113.027 54.8225 112.12C53.3558 111.187 52.2225 109.92 51.4225 108.32C50.6225 106.72 50.2225 104.907 50.2225 102.88C50.2225 100.853 50.6225 99.0533 51.4225 97.48C52.2225 95.88 53.3558 94.6267 54.8225 93.72C56.3158 92.8133 58.0358 92.36 59.9825 92.36C61.6358 92.36 63.0758 92.6933 64.3025 93.36C65.5558 94.0267 66.5158 94.96 67.1825 96.16V84.2H70.5425V113H67.5025L67.2225 109.68C66.7958 110.347 66.2492 110.973 65.5825 111.56C64.9158 112.12 64.1158 112.587 63.1825 112.96C62.2492 113.307 61.1692 113.48 59.9425 113.48ZM60.3425 110.56C61.6758 110.56 62.8492 110.24 63.8625 109.6C64.8758 108.96 65.6625 108.08 66.2225 106.96C66.7825 105.813 67.0625 104.467 67.0625 102.92C67.0625 101.4 66.7825 100.067 66.2225 98.92C65.6625 97.7733 64.8758 96.88 63.8625 96.24C62.8492 95.6 61.6758 95.28 60.3425 95.28C59.0358 95.28 57.8758 95.6 56.8625 96.24C55.8492 96.88 55.0625 97.7733 54.5025 98.92C53.9425 100.067 53.6625 101.4 53.6625 102.92C53.6625 104.467 53.9425 105.813 54.5025 106.96C55.0625 108.08 55.8492 108.96 56.8625 109.6C57.8758 110.24 59.0358 110.56 60.3425 110.56ZM76.0606 113V92.84H79.4206V113H76.0606ZM77.7406 88.56C77.074 88.56 76.514 88.3467 76.0606 87.92C75.634 87.4667 75.4206 86.9067 75.4206 86.24C75.4206 85.5733 75.634 85.04 76.0606 84.64C76.514 84.2133 77.074 84 77.7406 84C78.3806 84 78.9273 84.2133 79.3806 84.64C79.834 85.04 80.0606 85.5733 80.0606 86.24C80.0606 86.9067 79.834 87.4667 79.3806 87.92C78.9273 88.3467 78.3806 88.56 77.7406 88.56ZM92.87 113C91.67 113 90.63 112.813 89.75 112.44C88.87 112.067 88.19 111.44 87.71 110.56C87.2567 109.653 87.03 108.44 87.03 106.92V95.68H83.51V92.84H87.03L87.47 87.96H90.39V92.84H96.23V95.68H90.39V106.92C90.39 108.173 90.6433 109.027 91.15 109.48C91.6567 109.907 92.55 110.12 93.83 110.12H95.99V113H92.87ZM131.759 113L116.519 97.48C115.292 96.2533 114.412 95.1333 113.879 94.12C113.346 93.1067 113.079 91.9867 113.079 90.76C113.079 89.56 113.372 88.4933 113.959 87.56C114.546 86.6 115.372 85.8533 116.439 85.32C117.532 84.7867 118.839 84.52 120.359 84.52C121.826 84.52 123.092 84.8 124.159 85.36C125.252 85.8933 126.092 86.64 126.679 87.6C127.266 88.56 127.546 89.6667 127.519 90.92H124.199C124.199 89.72 123.812 88.8133 123.039 88.2C122.292 87.56 121.399 87.24 120.359 87.24C119.132 87.24 118.159 87.5733 117.439 88.24C116.746 88.88 116.399 89.7067 116.399 90.72C116.399 91.5733 116.639 92.4133 117.119 93.24C117.599 94.0667 118.292 94.9733 119.199 95.96L135.999 113H131.759ZM118.799 113.48C116.906 113.48 115.239 113.133 113.799 112.44C112.386 111.72 111.279 110.72 110.479 109.44C109.706 108.16 109.319 106.653 109.319 104.92C109.319 103.587 109.586 102.36 110.119 101.24C110.679 100.093 111.506 99.0933 112.599 98.24C113.692 97.36 115.026 96.6533 116.599 96.12L117.879 95.68L119.639 97.88L118.119 98.4C116.279 99.0667 114.906 99.9333 113.999 101C113.119 102.067 112.679 103.333 112.679 104.8C112.679 105.893 112.932 106.88 113.439 107.76C113.972 108.64 114.706 109.333 115.639 109.84C116.572 110.347 117.652 110.6 118.879 110.6C120.452 110.6 121.839 110.267 123.039 109.6C124.266 108.907 125.506 107.787 126.759 106.24C127.319 105.547 127.892 104.747 128.479 103.84C129.066 102.907 129.692 101.867 130.359 100.72L131.599 98.52H135.159L133.359 101.72C132.639 103.053 131.919 104.267 131.199 105.36C130.506 106.453 129.799 107.427 129.079 108.28C127.559 110.12 125.972 111.453 124.319 112.28C122.692 113.08 120.852 113.48 118.799 113.48ZM161.999 113.48C159.279 113.48 156.919 112.88 154.919 111.68C152.946 110.453 151.426 108.76 150.359 106.6C149.292 104.413 148.759 101.88 148.759 99C148.759 96.12 149.292 93.6 150.359 91.44C151.426 89.2533 152.946 87.56 154.919 86.36C156.919 85.1333 159.279 84.52 161.999 84.52C165.199 84.52 167.799 85.28 169.799 86.8C171.799 88.32 173.079 90.4667 173.639 93.24H169.919C169.492 91.5067 168.626 90.12 167.319 89.08C166.012 88.0133 164.239 87.48 161.999 87.48C159.999 87.48 158.266 87.9467 156.799 88.88C155.332 89.7867 154.199 91.1067 153.399 92.84C152.599 94.5467 152.199 96.6 152.199 99C152.199 101.4 152.599 103.467 153.399 105.2C154.199 106.907 155.332 108.227 156.799 109.16C158.266 110.067 159.999 110.52 161.999 110.52C164.239 110.52 166.012 110.013 167.319 109C168.626 107.96 169.492 106.587 169.919 104.88H173.639C173.079 107.573 171.799 109.68 169.799 111.2C167.799 112.72 165.199 113.48 161.999 113.48ZM186.911 113.48C185.044 113.48 183.364 113.053 181.871 112.2C180.378 111.32 179.204 110.093 178.351 108.52C177.498 106.92 177.071 105.067 177.071 102.96C177.071 100.8 177.498 98.9333 178.351 97.36C179.231 95.76 180.418 94.5333 181.911 93.68C183.431 92.8 185.124 92.36 186.991 92.36C188.911 92.36 190.604 92.8 192.071 93.68C193.564 94.5333 194.738 95.76 195.591 97.36C196.471 98.9333 196.911 100.787 196.911 102.92C196.911 105.053 196.471 106.92 195.591 108.52C194.711 110.093 193.524 111.32 192.031 112.2C190.538 113.053 188.831 113.48 186.911 113.48ZM186.951 110.6C188.098 110.6 189.164 110.32 190.151 109.76C191.138 109.173 191.938 108.307 192.551 107.16C193.164 106.013 193.471 104.6 193.471 102.92C193.471 101.213 193.164 99.8 192.551 98.68C191.964 97.5333 191.178 96.68 190.191 96.12C189.231 95.5333 188.164 95.24 186.991 95.24C185.871 95.24 184.804 95.5333 183.791 96.12C182.804 96.68 182.004 97.5333 181.391 98.68C180.804 99.8 180.511 101.213 180.511 102.92C180.511 104.6 180.804 106.013 181.391 107.16C182.004 108.307 182.791 109.173 183.751 109.76C184.738 110.32 185.804 110.6 186.951 110.6ZM201.222 113V92.84H204.262L204.422 96.36C205.062 95.1067 205.969 94.1333 207.142 93.44C208.342 92.72 209.702 92.36 211.222 92.36C212.795 92.36 214.155 92.68 215.302 93.32C216.449 93.9333 217.342 94.88 217.982 96.16C218.622 97.4133 218.942 99.0133 218.942 100.96V113H215.582V101.32C215.582 99.2933 215.129 97.7733 214.222 96.76C213.342 95.7467 212.089 95.24 210.462 95.24C209.342 95.24 208.342 95.52 207.462 96.08C206.582 96.6133 205.875 97.4 205.342 98.44C204.835 99.4533 204.582 100.72 204.582 102.24V113H201.222ZM231.391 113.48C229.711 113.48 228.244 113.2 226.991 112.64C225.764 112.08 224.777 111.307 224.031 110.32C223.311 109.307 222.871 108.12 222.711 106.76H226.151C226.284 107.453 226.564 108.093 226.991 108.68C227.417 109.267 227.991 109.747 228.711 110.12C229.457 110.467 230.364 110.64 231.431 110.64C232.364 110.64 233.137 110.507 233.751 110.24C234.364 109.947 234.817 109.56 235.111 109.08C235.431 108.6 235.591 108.08 235.591 107.52C235.591 106.693 235.391 106.067 234.991 105.64C234.617 105.213 234.057 104.88 233.311 104.64C232.564 104.373 231.657 104.147 230.591 103.96C229.711 103.8 228.844 103.587 227.991 103.32C227.137 103.053 226.377 102.707 225.711 102.28C225.044 101.827 224.511 101.28 224.111 100.64C223.737 100 223.551 99.2133 223.551 98.28C223.551 97.1333 223.844 96.12 224.431 95.24C225.017 94.3333 225.857 93.6267 226.951 93.12C228.071 92.6133 229.364 92.36 230.831 92.36C232.991 92.36 234.737 92.88 236.071 93.92C237.404 94.96 238.191 96.4667 238.431 98.44H235.111C234.977 97.4267 234.537 96.64 233.791 96.08C233.071 95.4933 232.071 95.2 230.791 95.2C229.537 95.2 228.577 95.4533 227.911 95.96C227.271 96.4667 226.951 97.1333 226.951 97.96C226.951 98.4933 227.124 98.9733 227.471 99.4C227.844 99.8 228.377 100.147 229.071 100.44C229.791 100.733 230.671 100.973 231.711 101.16C233.044 101.4 234.257 101.72 235.351 102.12C236.444 102.52 237.324 103.12 237.991 103.92C238.684 104.693 239.031 105.8 239.031 107.24C239.031 108.493 238.711 109.587 238.071 110.52C237.457 111.453 236.577 112.187 235.431 112.72C234.284 113.227 232.937 113.48 231.391 113.48ZM250.789 113.48C249.242 113.48 247.882 113.173 246.709 112.56C245.562 111.947 244.669 111 244.029 109.72C243.415 108.44 243.109 106.84 243.109 104.92V92.84H246.469V104.56C246.469 106.56 246.909 108.067 247.789 109.08C248.669 110.093 249.909 110.6 251.509 110.6C252.629 110.6 253.642 110.333 254.549 109.8C255.455 109.24 256.162 108.453 256.669 107.44C257.202 106.4 257.469 105.133 257.469 103.64V92.84H260.829V113H257.789L257.589 109.48C256.975 110.733 256.069 111.72 254.869 112.44C253.669 113.133 252.309 113.48 250.789 113.48ZM265.998 113V84.2H269.358V113H265.998ZM282.425 113C281.225 113 280.185 112.813 279.305 112.44C278.425 112.067 277.745 111.44 277.265 110.56C276.811 109.653 276.585 108.44 276.585 106.92V95.68H273.065V92.84H276.585L277.025 87.96H279.945V92.84H285.785V95.68H279.945V106.92C279.945 108.173 280.198 109.027 280.705 109.48C281.211 109.907 282.105 110.12 283.385 110.12H285.545V113H282.425ZM290.089 113V92.84H293.449V113H290.089ZM291.769 88.56C291.102 88.56 290.542 88.3467 290.089 87.92C289.662 87.4667 289.449 86.9067 289.449 86.24C289.449 85.5733 289.662 85.04 290.089 84.64C290.542 84.2133 291.102 84 291.769 84C292.409 84 292.955 84.2133 293.409 84.64C293.862 85.04 294.089 85.5733 294.089 86.24C294.089 86.9067 293.862 87.4667 293.409 87.92C292.955 88.3467 292.409 88.56 291.769 88.56ZM298.978 113V92.84H302.018L302.178 96.36C302.818 95.1067 303.725 94.1333 304.898 93.44C306.098 92.72 307.458 92.36 308.978 92.36C310.551 92.36 311.911 92.68 313.058 93.32C314.205 93.9333 315.098 94.88 315.738 96.16C316.378 97.4133 316.698 99.0133 316.698 100.96V113H313.338V101.32C313.338 99.2933 312.885 97.7733 311.978 96.76C311.098 95.7467 309.845 95.24 308.218 95.24C307.098 95.24 306.098 95.52 305.218 96.08C304.338 96.6133 303.631 97.4 303.098 98.44C302.591 99.4533 302.338 100.72 302.338 102.24V113H298.978ZM329.507 122.28C327.694 122.28 326.08 122.04 324.667 121.56C323.28 121.107 322.2 120.4 321.427 119.44C320.654 118.48 320.267 117.293 320.267 115.88C320.267 115.267 320.387 114.613 320.627 113.92C320.894 113.227 321.334 112.547 321.947 111.88C322.587 111.213 323.48 110.613 324.627 110.08L326.947 111.44C325.534 112.027 324.614 112.693 324.187 113.44C323.76 114.213 323.547 114.92 323.547 115.56C323.547 116.44 323.8 117.173 324.307 117.76C324.814 118.347 325.52 118.787 326.427 119.08C327.334 119.373 328.36 119.52 329.507 119.52C330.654 119.52 331.64 119.36 332.467 119.04C333.294 118.72 333.934 118.267 334.387 117.68C334.84 117.093 335.067 116.4 335.067 115.6C335.067 114.667 334.72 113.88 334.027 113.24C333.334 112.627 332.014 112.267 330.067 112.16C328.494 112.053 327.174 111.907 326.107 111.72C325.04 111.533 324.16 111.32 323.467 111.08C322.774 110.813 322.187 110.52 321.707 110.2C321.254 109.88 320.84 109.547 320.467 109.2V108.28L324.347 104.44L327.267 105.48L323.267 109.08L323.787 107.68C324.08 107.893 324.36 108.093 324.627 108.28C324.894 108.467 325.254 108.627 325.707 108.76C326.16 108.893 326.787 109.013 327.587 109.12C328.414 109.227 329.494 109.333 330.827 109.44C332.667 109.573 334.134 109.893 335.227 110.4C336.347 110.907 337.147 111.587 337.627 112.44C338.134 113.293 338.387 114.307 338.387 115.48C338.387 116.627 338.067 117.707 337.427 118.72C336.814 119.76 335.854 120.613 334.547 121.28C333.24 121.947 331.56 122.28 329.507 122.28ZM329.467 106.68C327.787 106.68 326.347 106.36 325.147 105.72C323.974 105.08 323.08 104.227 322.467 103.16C321.854 102.067 321.547 100.853 321.547 99.52C321.547 98.1867 321.854 96.9867 322.467 95.92C323.107 94.8533 324.014 94 325.187 93.36C326.36 92.6933 327.787 92.36 329.467 92.36C331.147 92.36 332.574 92.6933 333.747 93.36C334.92 94 335.814 94.8533 336.427 95.92C337.04 96.9867 337.347 98.1867 337.347 99.52C337.347 100.853 337.04 102.067 336.427 103.16C335.814 104.227 334.92 105.08 333.747 105.72C332.574 106.36 331.147 106.68 329.467 106.68ZM329.467 103.92C330.907 103.92 332.04 103.547 332.867 102.8C333.694 102.053 334.107 100.96 334.107 99.52C334.107 98.1067 333.694 97.0267 332.867 96.28C332.04 95.5333 330.907 95.16 329.467 95.16C328.054 95.16 326.907 95.5333 326.027 96.28C325.174 97.0267 324.747 98.1067 324.747 99.52C324.747 100.96 325.174 102.053 326.027 102.8C326.88 103.547 328.027 103.92 329.467 103.92ZM332.747 95.68L331.747 92.84H339.987V95.36L332.747 95.68Z" fill="white"/>
</g>
<path d="M3 177V149H20.04V151.76H6.36V161.6H18V164.32H6.36V177H3ZM23.8063 177V156.84H26.8463L27.0863 160.68C27.5396 159.773 28.1129 159 28.8063 158.36C29.5263 157.72 30.3796 157.227 31.3663 156.88C32.3796 156.533 33.5263 156.36 34.8063 156.36V159.88H33.5663C32.7129 159.88 31.8996 160 31.1263 160.24C30.3529 160.453 29.6596 160.813 29.0463 161.32C28.4596 161.827 27.9929 162.52 27.6463 163.4C27.3263 164.253 27.1663 165.32 27.1663 166.6V177H23.8063ZM44.7709 177.48C43.1443 177.48 41.7843 177.2 40.6909 176.64C39.5976 176.053 38.7843 175.293 38.2509 174.36C37.7176 173.4 37.4509 172.36 37.4509 171.24C37.4509 169.88 37.7976 168.733 38.4909 167.8C39.2109 166.84 40.2109 166.12 41.4909 165.64C42.7976 165.133 44.3309 164.88 46.0909 164.88H51.4109C51.4109 163.627 51.2109 162.587 50.8109 161.76C50.4376 160.907 49.8776 160.267 49.1309 159.84C48.4109 159.413 47.5043 159.2 46.4109 159.2C45.1309 159.2 44.0243 159.52 43.0909 160.16C42.1576 160.8 41.5843 161.747 41.3709 163H37.9309C38.0909 161.56 38.5709 160.36 39.3709 159.4C40.1976 158.413 41.2376 157.667 42.4909 157.16C43.7443 156.627 45.0509 156.36 46.4109 156.36C48.2776 156.36 49.8243 156.707 51.0509 157.4C52.3043 158.067 53.2376 159.013 53.8509 160.24C54.4643 161.44 54.7709 162.867 54.7709 164.52V177H51.7709L51.5709 173.44C51.3043 174 50.9576 174.533 50.5309 175.04C50.1309 175.52 49.6509 175.947 49.0909 176.32C48.5309 176.667 47.8909 176.947 47.1709 177.16C46.4776 177.373 45.6776 177.48 44.7709 177.48ZM45.2909 174.64C46.2243 174.64 47.0643 174.453 47.8109 174.08C48.5843 173.68 49.2376 173.147 49.7709 172.48C50.3043 171.787 50.7043 171.027 50.9709 170.2C51.2643 169.373 51.4109 168.507 51.4109 167.6V167.48H46.3709C45.0643 167.48 44.0109 167.64 43.2109 167.96C42.4109 168.253 41.8376 168.68 41.4909 169.24C41.1443 169.773 40.9709 170.387 40.9709 171.08C40.9709 171.8 41.1309 172.427 41.4509 172.96C41.7976 173.493 42.2909 173.907 42.9309 174.2C43.5976 174.493 44.3843 174.64 45.2909 174.64ZM68.6488 177.48C66.7554 177.48 65.0487 177.04 63.5287 176.16C62.0354 175.28 60.8621 174.053 60.0087 172.48C59.1554 170.88 58.7287 169.04 58.7287 166.96C58.7287 164.827 59.1554 162.973 60.0087 161.4C60.8621 159.827 62.0354 158.6 63.5287 157.72C65.0487 156.813 66.7554 156.36 68.6488 156.36C71.0488 156.36 73.0488 156.987 74.6488 158.24C76.2488 159.467 77.2621 161.12 77.6887 163.2H74.2487C73.9821 161.947 73.3287 160.973 72.2887 160.28C71.2487 159.587 70.0221 159.24 68.6087 159.24C67.4621 159.24 66.3954 159.533 65.4087 160.12C64.4221 160.68 63.6354 161.533 63.0487 162.68C62.4621 163.827 62.1687 165.24 62.1687 166.92C62.1687 168.173 62.3421 169.293 62.6887 170.28C63.0354 171.24 63.5021 172.04 64.0887 172.68C64.6754 173.32 65.3554 173.813 66.1287 174.16C66.9287 174.48 67.7554 174.64 68.6087 174.64C69.5687 174.64 70.4354 174.493 71.2088 174.2C71.9821 173.88 72.6354 173.413 73.1688 172.8C73.7021 172.187 74.0621 171.467 74.2487 170.64H77.6887C77.2621 172.667 76.2354 174.32 74.6087 175.6C73.0087 176.853 71.0221 177.48 68.6488 177.48ZM89.4325 177C88.2325 177 87.1925 176.813 86.3125 176.44C85.4325 176.067 84.7525 175.44 84.2725 174.56C83.8192 173.653 83.5925 172.44 83.5925 170.92V159.68H80.0725V156.84H83.5925L84.0325 151.96H86.9525V156.84H92.7925V159.68H86.9525V170.92C86.9525 172.173 87.2058 173.027 87.7125 173.48C88.2192 173.907 89.1125 174.12 90.3925 174.12H92.5525V177H89.4325ZM97.0966 177V156.84H100.457V177H97.0966ZM98.7766 152.56C98.1099 152.56 97.5499 152.347 97.0966 151.92C96.6699 151.467 96.4566 150.907 96.4566 150.24C96.4566 149.573 96.6699 149.04 97.0966 148.64C97.5499 148.213 98.1099 148 98.7766 148C99.4166 148 99.9632 148.213 100.417 148.64C100.87 149.04 101.097 149.573 101.097 150.24C101.097 150.907 100.87 151.467 100.417 151.92C99.9632 152.347 99.4166 152.56 98.7766 152.56ZM114.986 177.48C113.119 177.48 111.439 177.053 109.946 176.2C108.453 175.32 107.279 174.093 106.426 172.52C105.573 170.92 105.146 169.067 105.146 166.96C105.146 164.8 105.573 162.933 106.426 161.36C107.306 159.76 108.493 158.533 109.986 157.68C111.506 156.8 113.199 156.36 115.066 156.36C116.986 156.36 118.679 156.8 120.146 157.68C121.639 158.533 122.813 159.76 123.666 161.36C124.546 162.933 124.986 164.787 124.986 166.92C124.986 169.053 124.546 170.92 123.666 172.52C122.786 174.093 121.599 175.32 120.106 176.2C118.613 177.053 116.906 177.48 114.986 177.48ZM115.026 174.6C116.173 174.6 117.239 174.32 118.226 173.76C119.213 173.173 120.013 172.307 120.626 171.16C121.239 170.013 121.546 168.6 121.546 166.92C121.546 165.213 121.239 163.8 120.626 162.68C120.039 161.533 119.253 160.68 118.266 160.12C117.306 159.533 116.239 159.24 115.066 159.24C113.946 159.24 112.879 159.533 111.866 160.12C110.879 160.68 110.079 161.533 109.466 162.68C108.879 163.8 108.586 165.213 108.586 166.92C108.586 168.6 108.879 170.013 109.466 171.16C110.079 172.307 110.866 173.173 111.826 173.76C112.813 174.32 113.879 174.6 115.026 174.6ZM129.297 177V156.84H132.337L132.497 160.36C133.137 159.107 134.044 158.133 135.217 157.44C136.417 156.72 137.777 156.36 139.297 156.36C140.87 156.36 142.23 156.68 143.377 157.32C144.524 157.933 145.417 158.88 146.057 160.16C146.697 161.413 147.017 163.013 147.017 164.96V177H143.657V165.32C143.657 163.293 143.204 161.773 142.297 160.76C141.417 159.747 140.164 159.24 138.537 159.24C137.417 159.24 136.417 159.52 135.537 160.08C134.657 160.613 133.95 161.4 133.417 162.44C132.91 163.453 132.657 164.72 132.657 166.24V177H129.297ZM158.426 177.48C156.799 177.48 155.439 177.2 154.346 176.64C153.252 176.053 152.439 175.293 151.906 174.36C151.372 173.4 151.106 172.36 151.106 171.24C151.106 169.88 151.452 168.733 152.146 167.8C152.866 166.84 153.866 166.12 155.146 165.64C156.452 165.133 157.986 164.88 159.746 164.88H165.066C165.066 163.627 164.866 162.587 164.466 161.76C164.092 160.907 163.532 160.267 162.786 159.84C162.066 159.413 161.159 159.2 160.066 159.2C158.786 159.2 157.679 159.52 156.746 160.16C155.812 160.8 155.239 161.747 155.026 163H151.586C151.746 161.56 152.226 160.36 153.026 159.4C153.852 158.413 154.892 157.667 156.146 157.16C157.399 156.627 158.706 156.36 160.066 156.36C161.932 156.36 163.479 156.707 164.706 157.4C165.959 158.067 166.892 159.013 167.506 160.24C168.119 161.44 168.426 162.867 168.426 164.52V177H165.426L165.226 173.44C164.959 174 164.612 174.533 164.186 175.04C163.786 175.52 163.306 175.947 162.746 176.32C162.186 176.667 161.546 176.947 160.826 177.16C160.132 177.373 159.332 177.48 158.426 177.48ZM158.946 174.64C159.879 174.64 160.719 174.453 161.466 174.08C162.239 173.68 162.892 173.147 163.426 172.48C163.959 171.787 164.359 171.027 164.626 170.2C164.919 169.373 165.066 168.507 165.066 167.6V167.48H160.026C158.719 167.48 157.666 167.64 156.866 167.96C156.066 168.253 155.492 168.68 155.146 169.24C154.799 169.773 154.626 170.387 154.626 171.08C154.626 171.8 154.786 172.427 155.106 172.96C155.452 173.493 155.946 173.907 156.586 174.2C157.252 174.493 158.039 174.64 158.946 174.64ZM173.223 177V148.2H176.583V177H173.223ZM204.315 177.48C201.595 177.48 199.235 176.88 197.235 175.68C195.261 174.453 193.741 172.76 192.675 170.6C191.608 168.413 191.075 165.88 191.075 163C191.075 160.12 191.608 157.6 192.675 155.44C193.741 153.253 195.261 151.56 197.235 150.36C199.235 149.133 201.595 148.52 204.315 148.52C207.515 148.52 210.115 149.28 212.115 150.8C214.115 152.32 215.395 154.467 215.955 157.24H212.235C211.808 155.507 210.941 154.12 209.635 153.08C208.328 152.013 206.555 151.48 204.315 151.48C202.315 151.48 200.581 151.947 199.115 152.88C197.648 153.787 196.515 155.107 195.715 156.84C194.915 158.547 194.515 160.6 194.515 163C194.515 165.4 194.915 167.467 195.715 169.2C196.515 170.907 197.648 172.227 199.115 173.16C200.581 174.067 202.315 174.52 204.315 174.52C206.555 174.52 208.328 174.013 209.635 173C210.941 171.96 211.808 170.587 212.235 168.88H215.955C215.395 171.573 214.115 173.68 212.115 175.2C210.115 176.72 207.515 177.48 204.315 177.48ZM226.322 177V151.76H217.962V149H238.042V151.76H229.682V177H226.322ZM252.819 177.48C250.126 177.48 247.752 176.88 245.699 175.68C243.672 174.453 242.086 172.76 240.939 170.6C239.819 168.413 239.259 165.88 239.259 163C239.259 160.147 239.819 157.64 240.939 155.48C242.086 153.293 243.672 151.587 245.699 150.36C247.752 149.133 250.126 148.52 252.819 148.52C255.566 148.52 257.952 149.133 259.979 150.36C262.006 151.587 263.579 153.293 264.699 155.48C265.846 157.64 266.419 160.147 266.419 163C266.419 165.88 265.846 168.413 264.699 170.6C263.579 172.76 262.006 174.453 259.979 175.68C257.952 176.88 255.566 177.48 252.819 177.48ZM252.819 174.52C254.846 174.52 256.619 174.067 258.139 173.16C259.686 172.227 260.872 170.907 261.699 169.2C262.552 167.467 262.979 165.4 262.979 163C262.979 160.6 262.552 158.547 261.699 156.84C260.872 155.107 259.686 153.787 258.139 152.88C256.619 151.973 254.846 151.52 252.819 151.52C250.819 151.52 249.046 151.973 247.499 152.88C245.979 153.787 244.792 155.107 243.939 156.84C243.112 158.547 242.699 160.6 242.699 163C242.699 165.4 243.112 167.467 243.939 169.2C244.792 170.907 245.979 172.227 247.499 173.16C249.046 174.067 250.819 174.52 252.819 174.52Z" fill="white"/>
<g opacity="0.4" filter="url(#filter2_f_161_2650)">
<path d="M9.56 241V215.76H1.2V213H21.28V215.76H12.92V241H9.56ZM30.0681 241.48C28.1748 241.48 26.4948 241.04 25.0281 240.16C23.5881 239.28 22.4548 238.053 21.6281 236.48C20.8015 234.88 20.3881 233.027 20.3881 230.92C20.3881 228.787 20.7881 226.933 21.5881 225.36C22.4148 223.787 23.5615 222.56 25.0281 221.68C26.5215 220.8 28.2281 220.36 30.1481 220.36C32.1215 220.36 33.7881 220.8 35.1481 221.68C36.5348 222.56 37.5881 223.72 38.3081 225.16C39.0548 226.573 39.4281 228.133 39.4281 229.84C39.4281 230.107 39.4281 230.387 39.4281 230.68C39.4281 230.973 39.4148 231.307 39.3881 231.68H22.9081V229.08H36.1481C36.0681 227.24 35.4548 225.8 34.3081 224.76C33.1881 223.72 31.7748 223.2 30.0681 223.2C28.9215 223.2 27.8548 223.467 26.8681 224C25.9081 224.507 25.1348 225.267 24.5481 226.28C23.9615 227.267 23.6681 228.507 23.6681 230V231.12C23.6681 232.773 23.9615 234.16 24.5481 235.28C25.1615 236.4 25.9481 237.24 26.9081 237.8C27.8948 238.36 28.9481 238.64 30.0681 238.64C31.4815 238.64 32.6415 238.333 33.5481 237.72C34.4815 237.08 35.1481 236.227 35.5481 235.16H38.8681C38.5481 236.36 37.9881 237.44 37.1881 238.4C36.3881 239.36 35.3881 240.12 34.1881 240.68C33.0148 241.213 31.6415 241.48 30.0681 241.48ZM52.6425 241.48C50.7492 241.48 49.0425 241.04 47.5225 240.16C46.0292 239.28 44.8558 238.053 44.0025 236.48C43.1492 234.88 42.7225 233.04 42.7225 230.96C42.7225 228.827 43.1492 226.973 44.0025 225.4C44.8558 223.827 46.0292 222.6 47.5225 221.72C49.0425 220.813 50.7492 220.36 52.6425 220.36C55.0425 220.36 57.0425 220.987 58.6425 222.24C60.2425 223.467 61.2558 225.12 61.6825 227.2H58.2425C57.9758 225.947 57.3225 224.973 56.2825 224.28C55.2425 223.587 54.0158 223.24 52.6025 223.24C51.4558 223.24 50.3892 223.533 49.4025 224.12C48.4158 224.68 47.6292 225.533 47.0425 226.68C46.4558 227.827 46.1625 229.24 46.1625 230.92C46.1625 232.173 46.3358 233.293 46.6825 234.28C47.0292 235.24 47.4958 236.04 48.0825 236.68C48.6692 237.32 49.3492 237.813 50.1225 238.16C50.9225 238.48 51.7492 238.64 52.6025 238.64C53.5625 238.64 54.4292 238.493 55.2025 238.2C55.9758 237.88 56.6292 237.413 57.1625 236.8C57.6958 236.187 58.0558 235.467 58.2425 234.64H61.6825C61.2558 236.667 60.2292 238.32 58.6025 239.6C57.0025 240.853 55.0158 241.48 52.6425 241.48ZM66.0531 241V212.2H69.4131V224.24C70.0798 223.04 71.0131 222.093 72.2131 221.4C73.4398 220.707 74.7731 220.36 76.2131 220.36C77.7598 220.36 79.1065 220.68 80.2531 221.32C81.3998 221.933 82.2798 222.88 82.8931 224.16C83.5065 225.44 83.8131 227.053 83.8131 229V241H80.4931V229.36C80.4931 227.333 80.0665 225.813 79.2131 224.8C78.3598 223.76 77.1198 223.24 75.4931 223.24C74.3465 223.24 73.3065 223.52 72.3731 224.08C71.4665 224.64 70.7465 225.44 70.2131 226.48C69.6798 227.52 69.4131 228.8 69.4131 230.32V241H66.0531ZM88.6609 241V220.84H91.7009L91.8609 224.36C92.5009 223.107 93.4076 222.133 94.5809 221.44C95.7809 220.72 97.1409 220.36 98.6609 220.36C100.234 220.36 101.594 220.68 102.741 221.32C103.888 221.933 104.781 222.88 105.421 224.16C106.061 225.413 106.381 227.013 106.381 228.96V241H103.021V229.32C103.021 227.293 102.568 225.773 101.661 224.76C100.781 223.747 99.5276 223.24 97.9009 223.24C96.7809 223.24 95.7809 223.52 94.9009 224.08C94.0209 224.613 93.3143 225.4 92.7809 226.44C92.2743 227.453 92.0209 228.72 92.0209 230.24V241H88.6609ZM111.55 241V220.84H114.91V241H111.55ZM113.23 216.56C112.563 216.56 112.003 216.347 111.55 215.92C111.123 215.467 110.91 214.907 110.91 214.24C110.91 213.573 111.123 213.04 111.55 212.64C112.003 212.213 112.563 212 113.23 212C113.87 212 114.416 212.213 114.87 212.64C115.323 213.04 115.55 213.573 115.55 214.24C115.55 214.907 115.323 215.467 114.87 215.92C114.416 216.347 113.87 216.56 113.23 216.56ZM129.519 241.48C127.626 241.48 125.919 241.04 124.399 240.16C122.906 239.28 121.732 238.053 120.879 236.48C120.026 234.88 119.599 233.04 119.599 230.96C119.599 228.827 120.026 226.973 120.879 225.4C121.732 223.827 122.906 222.6 124.399 221.72C125.919 220.813 127.626 220.36 129.519 220.36C131.919 220.36 133.919 220.987 135.519 222.24C137.119 223.467 138.132 225.12 138.559 227.2H135.119C134.852 225.947 134.199 224.973 133.159 224.28C132.119 223.587 130.892 223.24 129.479 223.24C128.332 223.24 127.266 223.533 126.279 224.12C125.292 224.68 124.506 225.533 123.919 226.68C123.332 227.827 123.039 229.24 123.039 230.92C123.039 232.173 123.212 233.293 123.559 234.28C123.906 235.24 124.372 236.04 124.959 236.68C125.546 237.32 126.226 237.813 126.999 238.16C127.799 238.48 128.626 238.64 129.479 238.64C130.439 238.64 131.306 238.493 132.079 238.2C132.852 237.88 133.506 237.413 134.039 236.8C134.572 236.187 134.932 235.467 135.119 234.64H138.559C138.132 236.667 137.106 238.32 135.479 239.6C133.879 240.853 131.892 241.48 129.519 241.48ZM149.49 241.48C147.863 241.48 146.503 241.2 145.41 240.64C144.316 240.053 143.503 239.293 142.97 238.36C142.436 237.4 142.17 236.36 142.17 235.24C142.17 233.88 142.516 232.733 143.21 231.8C143.93 230.84 144.93 230.12 146.21 229.64C147.516 229.133 149.05 228.88 150.81 228.88H156.13C156.13 227.627 155.93 226.587 155.53 225.76C155.156 224.907 154.596 224.267 153.85 223.84C153.13 223.413 152.223 223.2 151.13 223.2C149.85 223.2 148.743 223.52 147.81 224.16C146.876 224.8 146.303 225.747 146.09 227H142.65C142.81 225.56 143.29 224.36 144.09 223.4C144.916 222.413 145.956 221.667 147.21 221.16C148.463 220.627 149.77 220.36 151.13 220.36C152.996 220.36 154.543 220.707 155.77 221.4C157.023 222.067 157.956 223.013 158.57 224.24C159.183 225.44 159.49 226.867 159.49 228.52V241H156.49L156.29 237.44C156.023 238 155.676 238.533 155.25 239.04C154.85 239.52 154.37 239.947 153.81 240.32C153.25 240.667 152.61 240.947 151.89 241.16C151.196 241.373 150.396 241.48 149.49 241.48ZM150.01 238.64C150.943 238.64 151.783 238.453 152.53 238.08C153.303 237.68 153.956 237.147 154.49 236.48C155.023 235.787 155.423 235.027 155.69 234.2C155.983 233.373 156.13 232.507 156.13 231.6V231.48H151.09C149.783 231.48 148.73 231.64 147.93 231.96C147.13 232.253 146.556 232.68 146.21 233.24C145.863 233.773 145.69 234.387 145.69 235.08C145.69 235.8 145.85 236.427 146.17 236.96C146.516 237.493 147.01 237.907 147.65 238.2C148.316 238.493 149.103 238.64 150.01 238.64ZM164.288 241V212.2H167.648V241H164.288ZM183.219 241V213H187.139L197.019 232.56L206.939 213H210.899V241H207.539V219L198.299 237.08H195.779L186.579 219.08V241H183.219ZM225.092 241.48C223.198 241.48 221.518 241.04 220.052 240.16C218.612 239.28 217.478 238.053 216.652 236.48C215.825 234.88 215.412 233.027 215.412 230.92C215.412 228.787 215.812 226.933 216.612 225.36C217.438 223.787 218.585 222.56 220.052 221.68C221.545 220.8 223.252 220.36 225.172 220.36C227.145 220.36 228.812 220.8 230.172 221.68C231.558 222.56 232.612 223.72 233.332 225.16C234.078 226.573 234.452 228.133 234.452 229.84C234.452 230.107 234.452 230.387 234.452 230.68C234.452 230.973 234.438 231.307 234.412 231.68H217.932V229.08H231.172C231.092 227.24 230.478 225.8 229.332 224.76C228.212 223.72 226.798 223.2 225.092 223.2C223.945 223.2 222.878 223.467 221.892 224C220.932 224.507 220.158 225.267 219.572 226.28C218.985 227.267 218.692 228.507 218.692 230V231.12C218.692 232.773 218.985 234.16 219.572 235.28C220.185 236.4 220.972 237.24 221.932 237.8C222.918 238.36 223.972 238.64 225.092 238.64C226.505 238.64 227.665 238.333 228.572 237.72C229.505 237.08 230.172 236.227 230.572 235.16H233.892C233.572 236.36 233.012 237.44 232.212 238.4C231.412 239.36 230.412 240.12 229.212 240.68C228.038 241.213 226.665 241.48 225.092 241.48ZM238.586 241V220.84H241.626L241.786 224.36C242.426 223.107 243.333 222.133 244.506 221.44C245.706 220.72 247.066 220.36 248.586 220.36C250.159 220.36 251.519 220.68 252.666 221.32C253.813 221.933 254.706 222.88 255.346 224.16C255.986 225.413 256.306 227.013 256.306 228.96V241H252.946V229.32C252.946 227.293 252.493 225.773 251.586 224.76C250.706 223.747 249.453 223.24 247.826 223.24C246.706 223.24 245.706 223.52 244.826 224.08C243.946 224.613 243.239 225.4 242.706 226.44C242.199 227.453 241.946 228.72 241.946 230.24V241H238.586ZM269.075 241C267.875 241 266.835 240.813 265.955 240.44C265.075 240.067 264.395 239.44 263.915 238.56C263.461 237.653 263.235 236.44 263.235 234.92V223.68H259.715V220.84H263.235L263.675 215.96H266.595V220.84H272.435V223.68H266.595V234.92C266.595 236.173 266.848 237.027 267.355 237.48C267.861 237.907 268.755 238.12 270.035 238.12H272.195V241H269.075ZM284.872 241.48C283.005 241.48 281.325 241.053 279.832 240.2C278.339 239.32 277.165 238.093 276.312 236.52C275.459 234.92 275.032 233.067 275.032 230.96C275.032 228.8 275.459 226.933 276.312 225.36C277.192 223.76 278.379 222.533 279.872 221.68C281.392 220.8 283.085 220.36 284.952 220.36C286.872 220.36 288.565 220.8 290.032 221.68C291.525 222.533 292.699 223.76 293.552 225.36C294.432 226.933 294.872 228.787 294.872 230.92C294.872 233.053 294.432 234.92 293.552 236.52C292.672 238.093 291.485 239.32 289.992 240.2C288.499 241.053 286.792 241.48 284.872 241.48ZM284.912 238.6C286.059 238.6 287.125 238.32 288.112 237.76C289.099 237.173 289.899 236.307 290.512 235.16C291.125 234.013 291.432 232.6 291.432 230.92C291.432 229.213 291.125 227.8 290.512 226.68C289.925 225.533 289.139 224.68 288.152 224.12C287.192 223.533 286.125 223.24 284.952 223.24C283.832 223.24 282.765 223.533 281.752 224.12C280.765 224.68 279.965 225.533 279.352 226.68C278.765 227.8 278.472 229.213 278.472 230.92C278.472 232.6 278.765 234.013 279.352 235.16C279.965 236.307 280.752 237.173 281.712 237.76C282.699 238.32 283.765 238.6 284.912 238.6ZM299.183 241V220.84H302.223L302.463 224.68C302.916 223.773 303.489 223 304.183 222.36C304.903 221.72 305.756 221.227 306.743 220.88C307.756 220.533 308.903 220.36 310.183 220.36V223.88H308.943C308.089 223.88 307.276 224 306.503 224.24C305.729 224.453 305.036 224.813 304.423 225.32C303.836 225.827 303.369 226.52 303.023 227.4C302.703 228.253 302.543 229.32 302.543 230.6V241H299.183ZM321.188 241.48C319.508 241.48 318.041 241.2 316.788 240.64C315.561 240.08 314.574 239.307 313.828 238.32C313.108 237.307 312.668 236.12 312.508 234.76H315.948C316.081 235.453 316.361 236.093 316.788 236.68C317.214 237.267 317.788 237.747 318.508 238.12C319.254 238.467 320.161 238.64 321.228 238.64C322.161 238.64 322.934 238.507 323.548 238.24C324.161 237.947 324.614 237.56 324.908 237.08C325.228 236.6 325.388 236.08 325.388 235.52C325.388 234.693 325.188 234.067 324.788 233.64C324.414 233.213 323.854 232.88 323.108 232.64C322.361 232.373 321.454 232.147 320.388 231.96C319.508 231.8 318.641 231.587 317.788 231.32C316.934 231.053 316.174 230.707 315.508 230.28C314.841 229.827 314.308 229.28 313.908 228.64C313.534 228 313.348 227.213 313.348 226.28C313.348 225.133 313.641 224.12 314.228 223.24C314.814 222.333 315.654 221.627 316.748 221.12C317.868 220.613 319.161 220.36 320.628 220.36C322.788 220.36 324.534 220.88 325.868 221.92C327.201 222.96 327.988 224.467 328.228 226.44H324.908C324.774 225.427 324.334 224.64 323.588 224.08C322.868 223.493 321.868 223.2 320.588 223.2C319.334 223.2 318.374 223.453 317.708 223.96C317.068 224.467 316.748 225.133 316.748 225.96C316.748 226.493 316.921 226.973 317.268 227.4C317.641 227.8 318.174 228.147 318.868 228.44C319.588 228.733 320.468 228.973 321.508 229.16C322.841 229.4 324.054 229.72 325.148 230.12C326.241 230.52 327.121 231.12 327.788 231.92C328.481 232.693 328.828 233.8 328.828 235.24C328.828 236.493 328.508 237.587 327.868 238.52C327.254 239.453 326.374 240.187 325.228 240.72C324.081 241.227 322.734 241.48 321.188 241.48ZM333.266 241V212.2H336.626V224.24C337.292 223.04 338.226 222.093 339.426 221.4C340.652 220.707 341.986 220.36 343.426 220.36C344.972 220.36 346.319 220.68 347.466 221.32C348.612 221.933 349.492 222.88 350.106 224.16C350.719 225.44 351.026 227.053 351.026 229V241H347.706V229.36C347.706 227.333 347.279 225.813 346.426 224.8C345.572 223.76 344.332 223.24 342.706 223.24C341.559 223.24 340.519 223.52 339.586 224.08C338.679 224.64 337.959 225.44 337.426 226.48C336.892 227.52 336.626 228.8 336.626 230.32V241H333.266ZM356.193 241V220.84H359.553V241H356.193ZM357.873 216.56C357.207 216.56 356.647 216.347 356.193 215.92C355.767 215.467 355.553 214.907 355.553 214.24C355.553 213.573 355.767 213.04 356.193 212.64C356.647 212.213 357.207 212 357.873 212C358.513 212 359.06 212.213 359.513 212.64C359.967 213.04 360.193 213.573 360.193 214.24C360.193 214.907 359.967 215.467 359.513 215.92C359.06 216.347 358.513 216.56 357.873 216.56ZM365.083 249.8V220.84H368.123L368.403 224.12C368.829 223.48 369.376 222.88 370.043 222.32C370.709 221.733 371.509 221.267 372.443 220.92C373.376 220.547 374.443 220.36 375.643 220.36C377.616 220.36 379.323 220.827 380.763 221.76C382.229 222.693 383.363 223.96 384.163 225.56C384.989 227.133 385.403 228.933 385.403 230.96C385.403 232.987 384.989 234.8 384.163 236.4C383.363 237.973 382.229 239.213 380.763 240.12C379.296 241.027 377.576 241.48 375.603 241.48C373.976 241.48 372.536 241.147 371.283 240.48C370.056 239.813 369.109 238.88 368.443 237.68V249.8H365.083ZM375.243 238.56C376.549 238.56 377.709 238.24 378.723 237.6C379.736 236.96 380.523 236.08 381.083 234.96C381.669 233.813 381.963 232.467 381.963 230.92C381.963 229.4 381.669 228.067 381.083 226.92C380.523 225.773 379.736 224.88 378.723 224.24C377.709 223.6 376.549 223.28 375.243 223.28C373.909 223.28 372.736 223.6 371.723 224.24C370.709 224.88 369.923 225.773 369.363 226.92C368.803 228.067 368.523 229.4 368.523 230.92C368.523 232.467 368.803 233.813 369.363 234.96C369.923 236.08 370.709 236.96 371.723 237.6C372.736 238.24 373.909 238.56 375.243 238.56Z" fill="white"/>
</g>
<g opacity="0.1" filter="url(#filter3_f_161_2650)">
<path d="M3 305V277H12.12C14.3333 277 16.1467 277.373 17.56 278.12C19 278.84 20.0533 279.813 20.72 281.04C21.4133 282.267 21.76 283.667 21.76 285.24C21.76 286.76 21.4133 288.147 20.72 289.4C20.0533 290.627 19.0133 291.613 17.6 292.36C16.1867 293.107 14.36 293.48 12.12 293.48H6.36V305H3ZM6.36 290.64H12.08C14.32 290.64 15.92 290.147 16.88 289.16C17.84 288.173 18.32 286.867 18.32 285.24C18.32 283.507 17.84 282.173 16.88 281.24C15.92 280.28 14.32 279.8 12.08 279.8H6.36V290.64ZM25.6031 305V284.84H28.6431L28.8831 288.68C29.3365 287.773 29.9098 287 30.6031 286.36C31.3231 285.72 32.1765 285.227 33.1631 284.88C34.1765 284.533 35.3231 284.36 36.6031 284.36V287.88H35.3631C34.5098 287.88 33.6965 288 32.9231 288.24C32.1498 288.453 31.4565 288.813 30.8431 289.32C30.2565 289.827 29.7898 290.52 29.4431 291.4C29.1231 292.253 28.9631 293.32 28.9631 294.6V305H25.6031ZM48.2656 305.48C46.399 305.48 44.719 305.053 43.2256 304.2C41.7323 303.32 40.559 302.093 39.7056 300.52C38.8523 298.92 38.4256 297.067 38.4256 294.96C38.4256 292.8 38.8523 290.933 39.7056 289.36C40.5856 287.76 41.7723 286.533 43.2656 285.68C44.7856 284.8 46.479 284.36 48.3456 284.36C50.2656 284.36 51.959 284.8 53.4256 285.68C54.919 286.533 56.0923 287.76 56.9456 289.36C57.8256 290.933 58.2656 292.787 58.2656 294.92C58.2656 297.053 57.8256 298.92 56.9456 300.52C56.0656 302.093 54.879 303.32 53.3856 304.2C51.8923 305.053 50.1856 305.48 48.2656 305.48ZM48.3056 302.6C49.4523 302.6 50.519 302.32 51.5056 301.76C52.4923 301.173 53.2923 300.307 53.9056 299.16C54.519 298.013 54.8256 296.6 54.8256 294.92C54.8256 293.213 54.519 291.8 53.9056 290.68C53.319 289.533 52.5323 288.68 51.5456 288.12C50.5856 287.533 49.519 287.24 48.3456 287.24C47.2256 287.24 46.159 287.533 45.1456 288.12C44.159 288.68 43.359 289.533 42.7456 290.68C42.159 291.8 41.8656 293.213 41.8656 294.92C41.8656 296.6 42.159 298.013 42.7456 299.16C43.359 300.307 44.1456 301.173 45.1056 301.76C46.0923 302.32 47.159 302.6 48.3056 302.6ZM71.4566 305.48C69.5099 305.48 67.8032 305.027 66.3366 304.12C64.8699 303.187 63.7366 301.92 62.9366 300.32C62.1366 298.72 61.7366 296.907 61.7366 294.88C61.7366 292.853 62.1366 291.053 62.9366 289.48C63.7366 287.88 64.8699 286.627 66.3366 285.72C67.8299 284.813 69.5499 284.36 71.4966 284.36C73.1499 284.36 74.5899 284.693 75.8166 285.36C77.0699 286.027 78.0299 286.96 78.6966 288.16V276.2H82.0566V305H79.0166L78.7366 301.68C78.3099 302.347 77.7632 302.973 77.0966 303.56C76.4299 304.12 75.6299 304.587 74.6966 304.96C73.7632 305.307 72.6832 305.48 71.4566 305.48ZM71.8566 302.56C73.1899 302.56 74.3632 302.24 75.3766 301.6C76.3899 300.96 77.1766 300.08 77.7366 298.96C78.2966 297.813 78.5766 296.467 78.5766 294.92C78.5766 293.4 78.2966 292.067 77.7366 290.92C77.1766 289.773 76.3899 288.88 75.3766 288.24C74.3632 287.6 73.1899 287.28 71.8566 287.28C70.5499 287.28 69.3899 287.6 68.3766 288.24C67.3632 288.88 66.5766 289.773 66.0166 290.92C65.4566 292.067 65.1766 293.4 65.1766 294.92C65.1766 296.467 65.4566 297.813 66.0166 298.96C66.5766 300.08 67.3632 300.96 68.3766 301.6C69.3899 302.24 70.5499 302.56 71.8566 302.56ZM94.5747 305.48C93.028 305.48 91.668 305.173 90.4947 304.56C89.348 303.947 88.4547 303 87.8147 301.72C87.2014 300.44 86.8947 298.84 86.8947 296.92V284.84H90.2547V296.56C90.2547 298.56 90.6947 300.067 91.5747 301.08C92.4547 302.093 93.6947 302.6 95.2947 302.6C96.4147 302.6 97.428 302.333 98.3347 301.8C99.2414 301.24 99.948 300.453 100.455 299.44C100.988 298.4 101.255 297.133 101.255 295.64V284.84H104.615V305H101.575L101.375 301.48C100.761 302.733 99.8547 303.72 98.6547 304.44C97.4547 305.133 96.0947 305.48 94.5747 305.48ZM118.864 305.48C116.971 305.48 115.264 305.04 113.744 304.16C112.251 303.28 111.078 302.053 110.224 300.48C109.371 298.88 108.944 297.04 108.944 294.96C108.944 292.827 109.371 290.973 110.224 289.4C111.078 287.827 112.251 286.6 113.744 285.72C115.264 284.813 116.971 284.36 118.864 284.36C121.264 284.36 123.264 284.987 124.864 286.24C126.464 287.467 127.478 289.12 127.904 291.2H124.464C124.198 289.947 123.544 288.973 122.504 288.28C121.464 287.587 120.238 287.24 118.824 287.24C117.678 287.24 116.611 287.533 115.624 288.12C114.638 288.68 113.851 289.533 113.264 290.68C112.678 291.827 112.384 293.24 112.384 294.92C112.384 296.173 112.558 297.293 112.904 298.28C113.251 299.24 113.718 300.04 114.304 300.68C114.891 301.32 115.571 301.813 116.344 302.16C117.144 302.48 117.971 302.64 118.824 302.64C119.784 302.64 120.651 302.493 121.424 302.2C122.198 301.88 122.851 301.413 123.384 300.8C123.918 300.187 124.278 299.467 124.464 298.64H127.904C127.478 300.667 126.451 302.32 124.824 303.6C123.224 304.853 121.238 305.48 118.864 305.48ZM139.648 305C138.448 305 137.408 304.813 136.528 304.44C135.648 304.067 134.968 303.44 134.488 302.56C134.035 301.653 133.808 300.44 133.808 298.92V287.68H130.288V284.84H133.808L134.248 279.96H137.168V284.84H143.008V287.68H137.168V298.92C137.168 300.173 137.421 301.027 137.928 301.48C138.435 301.907 139.328 302.12 140.608 302.12H142.768V305H139.648ZM157.417 305V277H165.657C168.937 277 171.631 277.573 173.737 278.72C175.871 279.84 177.444 281.453 178.457 283.56C179.497 285.64 180.017 288.147 180.017 291.08C180.017 293.96 179.497 296.44 178.457 298.52C177.444 300.6 175.871 302.2 173.737 303.32C171.631 304.44 168.937 305 165.657 305H157.417ZM160.777 302.2H165.577C168.297 302.2 170.457 301.76 172.057 300.88C173.657 299.973 174.804 298.693 175.497 297.04C176.191 295.36 176.537 293.373 176.537 291.08C176.537 288.733 176.191 286.72 175.497 285.04C174.804 283.36 173.657 282.067 172.057 281.16C170.457 280.253 168.297 279.8 165.577 279.8H160.777V302.2ZM193.196 305.48C191.303 305.48 189.623 305.04 188.156 304.16C186.716 303.28 185.583 302.053 184.756 300.48C183.93 298.88 183.516 297.027 183.516 294.92C183.516 292.787 183.916 290.933 184.716 289.36C185.543 287.787 186.69 286.56 188.156 285.68C189.65 284.8 191.356 284.36 193.276 284.36C195.25 284.36 196.916 284.8 198.276 285.68C199.663 286.56 200.716 287.72 201.436 289.16C202.183 290.573 202.556 292.133 202.556 293.84C202.556 294.107 202.556 294.387 202.556 294.68C202.556 294.973 202.543 295.307 202.516 295.68H186.036V293.08H199.276C199.196 291.24 198.583 289.8 197.436 288.76C196.316 287.72 194.903 287.2 193.196 287.2C192.05 287.2 190.983 287.467 189.996 288C189.036 288.507 188.263 289.267 187.676 290.28C187.09 291.267 186.796 292.507 186.796 294V295.12C186.796 296.773 187.09 298.16 187.676 299.28C188.29 300.4 189.076 301.24 190.036 301.8C191.023 302.36 192.076 302.64 193.196 302.64C194.61 302.64 195.77 302.333 196.676 301.72C197.61 301.08 198.276 300.227 198.676 299.16H201.996C201.676 300.36 201.116 301.44 200.316 302.4C199.516 303.36 198.516 304.12 197.316 304.68C196.143 305.213 194.77 305.48 193.196 305.48ZM211.709 305L204.069 284.84H207.589L213.669 301.76L219.789 284.84H223.229L215.589 305H211.709ZM234.428 305.48C232.534 305.48 230.854 305.04 229.388 304.16C227.948 303.28 226.814 302.053 225.988 300.48C225.161 298.88 224.748 297.027 224.748 294.92C224.748 292.787 225.148 290.933 225.948 289.36C226.774 287.787 227.921 286.56 229.388 285.68C230.881 284.8 232.588 284.36 234.508 284.36C236.481 284.36 238.148 284.8 239.508 285.68C240.894 286.56 241.948 287.72 242.668 289.16C243.414 290.573 243.788 292.133 243.788 293.84C243.788 294.107 243.788 294.387 243.788 294.68C243.788 294.973 243.774 295.307 243.748 295.68H227.268V293.08H240.508C240.428 291.24 239.814 289.8 238.668 288.76C237.548 287.72 236.134 287.2 234.428 287.2C233.281 287.2 232.214 287.467 231.228 288C230.268 288.507 229.494 289.267 228.908 290.28C228.321 291.267 228.028 292.507 228.028 294V295.12C228.028 296.773 228.321 298.16 228.908 299.28C229.521 300.4 230.308 301.24 231.268 301.8C232.254 302.36 233.308 302.64 234.428 302.64C235.841 302.64 237.001 302.333 237.908 301.72C238.841 301.08 239.508 300.227 239.908 299.16H243.228C242.908 300.36 242.348 301.44 241.548 302.4C240.748 303.36 239.748 304.12 238.548 304.68C237.374 305.213 236.001 305.48 234.428 305.48ZM247.922 305V276.2H251.282V305H247.922ZM265.428 305.48C263.561 305.48 261.881 305.053 260.388 304.2C258.895 303.32 257.721 302.093 256.868 300.52C256.015 298.92 255.588 297.067 255.588 294.96C255.588 292.8 256.015 290.933 256.868 289.36C257.748 287.76 258.935 286.533 260.428 285.68C261.948 284.8 263.641 284.36 265.508 284.36C267.428 284.36 269.121 284.8 270.588 285.68C272.081 286.533 273.255 287.76 274.108 289.36C274.988 290.933 275.428 292.787 275.428 294.92C275.428 297.053 274.988 298.92 274.108 300.52C273.228 302.093 272.041 303.32 270.548 304.2C269.055 305.053 267.348 305.48 265.428 305.48ZM265.468 302.6C266.615 302.6 267.681 302.32 268.668 301.76C269.655 301.173 270.455 300.307 271.068 299.16C271.681 298.013 271.988 296.6 271.988 294.92C271.988 293.213 271.681 291.8 271.068 290.68C270.481 289.533 269.695 288.68 268.708 288.12C267.748 287.533 266.681 287.24 265.508 287.24C264.388 287.24 263.321 287.533 262.308 288.12C261.321 288.68 260.521 289.533 259.908 290.68C259.321 291.8 259.028 293.213 259.028 294.92C259.028 296.6 259.321 298.013 259.908 299.16C260.521 300.307 261.308 301.173 262.268 301.76C263.255 302.32 264.321 302.6 265.468 302.6ZM279.739 313.8V284.84H282.779L283.059 288.12C283.486 287.48 284.032 286.88 284.699 286.32C285.366 285.733 286.166 285.267 287.099 284.92C288.032 284.547 289.099 284.36 290.299 284.36C292.272 284.36 293.979 284.827 295.419 285.76C296.886 286.693 298.019 287.96 298.819 289.56C299.646 291.133 300.059 292.933 300.059 294.96C300.059 296.987 299.646 298.8 298.819 300.4C298.019 301.973 296.886 303.213 295.419 304.12C293.952 305.027 292.232 305.48 290.259 305.48C288.632 305.48 287.192 305.147 285.939 304.48C284.712 303.813 283.766 302.88 283.099 301.68V313.8H279.739ZM289.899 302.56C291.206 302.56 292.366 302.24 293.379 301.6C294.392 300.96 295.179 300.08 295.739 298.96C296.326 297.813 296.619 296.467 296.619 294.92C296.619 293.4 296.326 292.067 295.739 290.92C295.179 289.773 294.392 288.88 293.379 288.24C292.366 287.6 291.206 287.28 289.899 287.28C288.566 287.28 287.392 287.6 286.379 288.24C285.366 288.88 284.579 289.773 284.019 290.92C283.459 292.067 283.179 293.4 283.179 294.92C283.179 296.467 283.459 297.813 284.019 298.96C284.579 300.08 285.366 300.96 286.379 301.6C287.392 302.24 288.566 302.56 289.899 302.56ZM304.378 305V284.84H307.418L307.618 287.72C308.258 286.68 309.111 285.867 310.178 285.28C311.271 284.667 312.458 284.36 313.738 284.36C314.778 284.36 315.711 284.507 316.538 284.8C317.391 285.067 318.138 285.493 318.778 286.08C319.418 286.64 319.938 287.36 320.338 288.24C321.031 287.013 321.978 286.067 323.178 285.4C324.405 284.707 325.711 284.36 327.098 284.36C328.645 284.36 329.991 284.68 331.138 285.32C332.311 285.933 333.205 286.88 333.818 288.16C334.458 289.413 334.778 291.013 334.778 292.96V305H331.458V293.32C331.458 291.293 331.045 289.773 330.218 288.76C329.391 287.747 328.231 287.24 326.738 287.24C325.698 287.24 324.765 287.52 323.938 288.08C323.111 288.613 322.458 289.4 321.978 290.44C321.498 291.48 321.258 292.76 321.258 294.28V305H317.898V293.32C317.898 291.293 317.485 289.773 316.658 288.76C315.831 287.747 314.658 287.24 313.138 287.24C312.125 287.24 311.205 287.52 310.378 288.08C309.578 288.613 308.938 289.4 308.458 290.44C307.978 291.48 307.738 292.76 307.738 294.28V305H304.378ZM348.443 305.48C346.55 305.48 344.87 305.04 343.403 304.16C341.963 303.28 340.83 302.053 340.003 300.48C339.176 298.88 338.763 297.027 338.763 294.92C338.763 292.787 339.163 290.933 339.963 289.36C340.79 287.787 341.936 286.56 343.403 285.68C344.896 284.8 346.603 284.36 348.523 284.36C350.496 284.36 352.163 284.8 353.523 285.68C354.91 286.56 355.963 287.72 356.683 289.16C357.43 290.573 357.803 292.133 357.803 293.84C357.803 294.107 357.803 294.387 357.803 294.68C357.803 294.973 357.79 295.307 357.763 295.68H341.283V293.08H354.523C354.443 291.24 353.83 289.8 352.683 288.76C351.563 287.72 350.15 287.2 348.443 287.2C347.296 287.2 346.23 287.467 345.243 288C344.283 288.507 343.51 289.267 342.923 290.28C342.336 291.267 342.043 292.507 342.043 294V295.12C342.043 296.773 342.336 298.16 342.923 299.28C343.536 300.4 344.323 301.24 345.283 301.8C346.27 302.36 347.323 302.64 348.443 302.64C349.856 302.64 351.016 302.333 351.923 301.72C352.856 301.08 353.523 300.227 353.923 299.16H357.243C356.923 300.36 356.363 301.44 355.563 302.4C354.763 303.36 353.763 304.12 352.563 304.68C351.39 305.213 350.016 305.48 348.443 305.48ZM361.938 305V284.84H364.978L365.138 288.36C365.778 287.107 366.684 286.133 367.858 285.44C369.058 284.72 370.418 284.36 371.938 284.36C373.511 284.36 374.871 284.68 376.018 285.32C377.164 285.933 378.058 286.88 378.698 288.16C379.338 289.413 379.658 291.013 379.658 292.96V305H376.298V293.32C376.298 291.293 375.844 289.773 374.938 288.76C374.058 287.747 372.804 287.24 371.178 287.24C370.058 287.24 369.058 287.52 368.178 288.08C367.298 288.613 366.591 289.4 366.058 290.44C365.551 291.453 365.298 292.72 365.298 294.24V305H361.938ZM392.426 305C391.226 305 390.186 304.813 389.306 304.44C388.426 304.067 387.746 303.44 387.266 302.56C386.813 301.653 386.586 300.44 386.586 298.92V287.68H383.066V284.84H386.586L387.026 279.96H389.946V284.84H395.786V287.68H389.946V298.92C389.946 300.173 390.2 301.027 390.706 301.48C391.213 301.907 392.106 302.12 393.386 302.12H395.546V305H392.426Z" fill="white"/>
</g>
</g>
<defs>
<filter id="filter0_f_161_2650" x="-5.12012" y="14" width="320.942" height="41.48" filterUnits="userSpaceOnUse" color-interpolation-filters="sRGB">
<feFlood flood-opacity="0" result="BackgroundImageFix"/>
<feBlend mode="normal" in="SourceGraphic" in2="BackgroundImageFix" result="shape"/>
<feGaussianBlur stdDeviation="3" result="effect1_foregroundBlur_161_2650"/>
</filter>
<filter id="filter1_f_161_2650" x="-2.7998" y="80" width="346.787" height="46.28" filterUnits="userSpaceOnUse" color-interpolation-filters="sRGB">
<feFlood flood-opacity="0" result="BackgroundImageFix"/>
<feBlend mode="normal" in="SourceGraphic" in2="BackgroundImageFix" result="shape"/>
<feGaussianBlur stdDeviation="2" result="effect1_foregroundBlur_161_2650"/>
</filter>
<filter id="filter2_f_161_2650" x="-2.7998" y="208" width="392.203" height="45.8" filterUnits="userSpaceOnUse" color-interpolation-filters="sRGB">
<feFlood flood-opacity="0" result="BackgroundImageFix"/>
<feBlend mode="normal" in="SourceGraphic" in2="BackgroundImageFix" result="shape"/>
<feGaussianBlur stdDeviation="2" result="effect1_foregroundBlur_161_2650"/>
</filter>
<filter id="filter3_f_161_2650" x="-3" y="270.2" width="404.786" height="49.6" filterUnits="userSpaceOnUse" color-interpolation-filters="sRGB">
<feFlood flood-opacity="0" result="BackgroundImageFix"/>
<feBlend mode="normal" in="SourceGraphic" in2="BackgroundImageFix" result="shape"/>
<feGaussianBlur stdDeviation="3" result="effect1_foregroundBlur_161_2650"/>
</filter>
<clipPath id="clip0_161_2650">
<rect width="405" height="327" fill="white"/>
</clipPath>
</defs>
</svg>
