<svg width="32" height="32" viewBox="0 0 32 32" fill="none" xmlns="http://www.w3.org/2000/svg">
<path d="M15.1636 12.1467C15.4253 11.7609 15.7118 11.7119 15.9442 11.7119C16.1766 11.7119 16.5637 11.7609 16.8255 12.1467C18.8883 14.9799 22.2932 20.624 24.8049 24.7873C26.4428 27.5024 27.7008 29.5877 27.959 29.8531C28.9279 30.8494 30.2567 30.2285 31.0288 29.0985C31.789 27.986 32 27.2048 32 26.3714C32 25.8038 20.9869 5.32143 19.8778 3.61653C18.8112 1.9767 18.4637 1.5625 16.6382 1.5625H15.2721C13.4519 1.5625 13.1889 1.9767 12.1222 3.61653C11.0132 5.32143 0 25.8038 0 26.3714C0 27.2048 0.211035 27.986 0.971226 29.0985C1.74338 30.2285 3.07219 30.8494 4.04106 29.8531C4.2992 29.5877 5.55724 27.5024 7.19519 24.7873C9.70684 20.624 13.1008 14.9799 15.1636 12.1467Z" fill="white"/>
</svg>
