<svg width="32" height="32" viewBox="0 0 32 32" fill="none" xmlns="http://www.w3.org/2000/svg">
<path d="M32 24.7949C30.836 25.0909 30.116 24.8079 29.47 23.8379L24.876 17.4819L24.212 16.6019L18.847 23.8589C18.234 24.7319 17.591 25.1119 16.447 24.8029L23.317 15.5809L16.921 7.25089C18.021 7.03689 18.781 7.14589 19.456 8.13089L24.221 14.5659L29.021 8.16589C29.636 7.29289 30.297 6.96089 31.401 7.28289L28.921 10.5709L25.561 14.9459C25.161 15.4459 25.216 15.7879 25.584 16.2709L32 24.7949ZM0.008 15.4269L0.57 12.6629C2.1 7.19289 8.37 4.91989 12.694 8.29989C15.221 10.2879 15.849 13.0999 15.724 16.2499H1.48C1.266 21.9199 5.347 25.3419 10.55 23.5959C12.375 22.9829 13.45 21.5539 13.988 19.7659C14.261 18.8699 14.713 18.7299 15.555 18.9859C15.125 21.2219 14.155 23.0899 12.105 24.2589C9.042 26.0089 4.67 25.4429 2.37 23.0109C1 21.5999 0.434 19.8119 0.18 17.8999C0.14 17.5839 0.06 17.2829 0 16.9799C0.00533333 16.4626 0.008 15.9452 0.008 15.4279V15.4269ZM1.506 15.0469H14.378C14.294 10.9469 11.741 8.03489 8.252 8.00989C4.422 7.97989 1.672 10.8229 1.506 15.0469Z" fill="white"/>
</svg>
