<svg width="32" height="32" viewBox="0 0 32 32" fill="none" xmlns="http://www.w3.org/2000/svg">
<path d="M5.80078 24.5999L5.97078 24.3629L13.9908 9.14894L14.0078 8.98794L10.4728 2.34794C10.4081 2.22652 10.3068 2.12852 10.1833 2.0678C10.0599 2.00709 9.92042 1.98674 9.78475 2.00963C9.64907 2.03252 9.52403 2.09749 9.4273 2.19535C9.33058 2.29321 9.26708 2.41901 9.24578 2.55494L5.80078 24.5999Z" fill="white"/>
<path d="M5.90039 24.4199L6.02839 24.1699L13.9654 9.11394L10.4394 2.44794C10.3812 2.33201 10.2871 2.23805 10.1711 2.18012C10.055 2.12219 9.92334 2.10342 9.79574 2.12662C9.66814 2.14982 9.55149 2.21374 9.46327 2.30881C9.37505 2.40387 9.32001 2.52496 9.30639 2.65394L5.90039 24.4199Z" fill="white"/>
<path d="M16.5835 14.01L19.2155 11.31L16.5825 6.28896C16.5245 6.1809 16.4383 6.09058 16.3331 6.02762C16.2279 5.96465 16.1076 5.9314 15.985 5.9314C15.8624 5.9314 15.742 5.96465 15.6368 6.02762C15.5316 6.09058 15.4454 6.1809 15.3875 6.28896L13.9805 8.97096V9.19996L16.5835 14.01Z" fill="white"/>
<path d="M16.5378 13.9L19.0968 11.28L16.5378 6.39998C16.4959 6.29434 16.4244 6.20308 16.3318 6.1372C16.2392 6.07131 16.1296 6.03361 16.016 6.02864C15.9025 6.02367 15.79 6.05165 15.692 6.1092C15.594 6.16674 15.5148 6.25141 15.4638 6.35298L14.0498 9.08198L14.0078 9.22098L16.5378 13.9Z" fill="white"/>
<path d="M5.80273 24.6011L5.87973 24.5231L6.15873 24.4101L16.4187 14.1881L16.5487 13.8341L13.9897 8.95605L5.80273 24.6011Z" fill="white"/>
<path d="M16.9128 29.7558L26.2008 24.5768L23.5468 8.24583C23.5278 8.1307 23.4774 8.02305 23.4012 7.93468C23.325 7.84631 23.2259 7.78064 23.1148 7.74489C23.0038 7.70914 22.885 7.70469 22.7715 7.73202C22.6581 7.75935 22.5544 7.81741 22.4718 7.89983L5.80078 24.5998L15.0338 29.7548C15.3208 29.915 15.6441 29.9991 15.9728 29.9991C16.3015 29.9991 16.6247 29.915 16.9118 29.7548" fill="white"/>
<path d="M26.1154 24.534L23.4834 8.32599C23.4787 8.21588 23.4415 8.10962 23.3765 8.02066C23.3114 7.9317 23.2214 7.86405 23.1179 7.82625C23.0144 7.78846 22.9019 7.78223 22.7949 7.80835C22.6878 7.83447 22.5909 7.89177 22.5164 7.97299L5.90039 24.569L15.0314 29.669C15.3162 29.8279 15.6368 29.9112 15.9629 29.9112C16.289 29.9112 16.6096 29.8279 16.8944 29.669L26.1154 24.534Z" fill="white"/>
<path d="M16.9128 29.6C16.6257 29.7602 16.3025 29.8443 15.9738 29.8443C15.6451 29.8443 15.3218 29.7602 15.0348 29.6L5.87678 24.522L5.80078 24.6L15.0338 29.755C15.3208 29.9152 15.6441 29.9993 15.9728 29.9993C16.3015 29.9993 16.6247 29.9152 16.9118 29.755L26.2008 24.577L26.1778 24.437L16.9128 29.6Z" fill="white"/>
</svg>
