<svg width="32" height="32" viewBox="0 0 32 32" fill="none" xmlns="http://www.w3.org/2000/svg">
<path d="M14.7268 4.16064L15.4203 5.46318C15.5762 5.70355 15.7451 5.91631 15.9441 6.11445C16.5274 6.69046 17.0711 7.30523 17.5715 7.95457C18.7465 9.49747 19.5391 11.2109 20.1051 13.064C20.4445 14.196 20.6288 15.3573 20.6426 16.5315C20.6995 20.042 19.496 23.0564 17.0696 25.5615C16.6749 25.9588 16.2485 26.3233 15.7947 26.6513C15.5543 26.6513 15.4406 26.467 15.3415 26.2973C15.1611 25.9826 15.0411 25.6369 14.9875 25.2781C14.9022 24.8534 14.8462 24.4287 14.8738 23.9902V23.7921C14.8543 23.7498 14.6424 4.26053 14.7268 4.16064Z" fill="white"/>
<path d="M14.7258 4.11754C14.6974 4.06069 14.669 4.10373 14.6405 4.13134C14.6543 4.41556 14.5553 4.66892 14.4002 4.91091C14.2296 5.15128 14.0039 5.33562 13.7773 5.53376C12.5186 6.62354 11.5279 7.93988 10.7345 9.41214C9.67888 11.3936 9.1348 13.5171 8.98051 15.7527C8.90986 16.559 9.2355 19.4045 9.48967 20.2255C10.1832 22.405 11.4289 24.2313 13.0424 25.8165C13.4387 26.1981 13.8626 26.5522 14.3011 26.8924C14.4286 26.8924 14.4424 26.7787 14.4716 26.6943C14.5275 26.5136 14.5701 26.329 14.5991 26.1421L14.8833 24.0194L14.7258 4.11754Z" fill="white"/>
<path d="M15.4209 27.5137C15.4494 27.1889 15.6053 26.9193 15.775 26.6505C15.6045 26.5798 15.4778 26.4393 15.3787 26.2826C15.2933 26.1342 15.2226 25.9778 15.1676 25.8157C14.9694 25.2213 14.9272 24.5976 14.8704 23.9902V23.6223C14.7997 23.6792 14.7851 24.1599 14.7851 24.2314C14.7438 24.8733 14.6586 25.5118 14.5301 26.1421C14.4879 26.3971 14.4595 26.6513 14.3027 26.8778C14.3027 26.9063 14.3027 26.9347 14.3165 26.9769C14.5715 27.7273 14.6414 28.4914 14.6844 29.2702V29.5544C14.6844 29.8938 14.6706 29.8224 14.9524 29.936C15.0661 29.9783 15.1927 29.9929 15.3064 30.0773C15.3917 30.0773 15.4055 30.0067 15.4055 29.9498L15.3633 29.4829V28.1804C15.3495 27.953 15.3917 27.7273 15.4201 27.5145L15.4209 27.5137Z" fill="white"/>
</svg>
