<svg width="32" height="32" viewBox="0 0 32 32" fill="none" xmlns="http://www.w3.org/2000/svg">
<path d="M14.6561 0.426926C15.4561 -0.0260738 16.4761 -0.0280738 17.2561 0.426926L29.2001 7.15993C29.9471 7.57993 30.4471 8.41293 30.4401 9.27393V22.7739C30.4451 23.6709 29.8961 24.5219 29.1081 24.9339L17.2281 31.6359C16.8218 31.8605 16.3627 31.9721 15.8987 31.9593C15.4346 31.9465 14.9824 31.8096 14.5891 31.5629L11.0241 29.5029C10.7811 29.3579 10.5081 29.2429 10.3361 29.0079C10.4881 28.8039 10.7581 28.7779 10.9781 28.6879C11.4741 28.5299 11.9281 28.2879 12.3841 28.0319C12.4991 27.9519 12.6401 27.9819 12.7501 28.0539L15.7901 29.8119C16.0071 29.9369 16.2271 29.7719 16.4131 29.6669L28.0781 23.0839C28.2221 23.0139 28.3021 22.8619 28.2901 22.7039V9.33393C28.3061 9.15393 28.2031 8.98993 28.0401 8.91693L16.1901 2.24393C16.1218 2.19669 16.0408 2.17131 15.9578 2.17113C15.8748 2.17095 15.7936 2.19599 15.7251 2.24293L3.89213 8.92993C3.73213 9.00293 3.62213 9.16493 3.64213 9.34493V22.7149C3.62813 22.8729 3.71213 23.0219 3.85713 23.0899L7.01913 24.8749C7.61313 25.1949 8.34213 25.3749 8.99613 25.1399C9.28232 25.0321 9.5287 24.8393 9.70225 24.5875C9.8758 24.3356 9.96822 24.0368 9.96713 23.7309L9.97013 10.4409C9.95613 10.2439 10.1421 10.0809 10.3331 10.1009H11.8531C12.0531 10.0959 12.2101 10.3079 12.1831 10.5059L12.1801 23.8799C12.1811 25.0679 11.6931 26.3599 10.5941 26.9429C9.24013 27.6429 7.56613 27.4959 6.22813 26.8229L2.82813 24.9429C2.02813 24.5429 1.49113 23.6789 1.49613 22.7829V9.28293C1.49945 8.84415 1.62008 8.41426 1.8455 8.0378C2.07091 7.66134 2.39292 7.35203 2.77813 7.14193L14.6561 0.426926ZM18.1001 9.78493C19.8271 9.68493 21.6761 9.71893 23.2301 10.5699C24.4331 11.2219 25.1001 12.5899 25.1221 13.9279C25.0881 14.1079 24.9001 14.2079 24.7281 14.1949C24.2281 14.1939 23.7261 14.2019 23.2241 14.1919C23.0111 14.1999 22.8881 14.0039 22.8611 13.8159C22.7171 13.1759 22.3681 12.5429 21.7661 12.2339C20.8421 11.7709 19.7701 11.7939 18.7621 11.8039C18.0261 11.8439 17.2351 11.9069 16.6121 12.3389C16.1321 12.6669 15.9881 13.3389 16.1591 13.8609C16.3191 14.2439 16.7621 14.3669 17.1231 14.4809C19.2051 15.0249 21.4101 14.9809 23.4531 15.6879C24.2981 15.9799 25.1251 16.5479 25.4151 17.4329C25.7931 18.6189 25.6281 20.0369 24.7851 20.9889C24.1011 21.7729 23.1051 22.1889 22.1101 22.4309C20.7871 22.7259 19.4151 22.7329 18.0721 22.6009C16.8091 22.4569 15.4951 22.1249 14.5201 21.2649C13.6861 20.5409 13.2801 19.4129 13.3201 18.3249C13.3301 18.1409 13.5131 18.0129 13.6901 18.0279H15.1901C15.3921 18.0139 15.5401 18.1879 15.5501 18.3779C15.6431 18.9779 15.8721 19.6279 16.4041 19.9779C17.4301 20.6399 18.7171 20.5939 19.8911 20.6129C20.8641 20.5699 21.9561 20.5569 22.7511 19.9129C23.1711 19.5459 23.2941 18.9329 23.1811 18.4049C23.0581 17.9589 22.5811 17.7519 22.1811 17.6049C20.1261 16.9549 17.8961 17.1909 15.8611 16.4549C15.0351 16.1629 14.2361 15.6109 13.9191 14.7619C13.4761 13.5619 13.6791 12.0749 14.6121 11.1549C15.5121 10.2399 16.8321 9.88693 18.0821 9.76093L18.1001 9.78493Z" fill="white"/>
</svg>
