<svg width="32" height="32" viewBox="0 0 32 32" fill="none" xmlns="http://www.w3.org/2000/svg">
<g clip-path="url(#clip0_246_2015)">
<path fill-rule="evenodd" clip-rule="evenodd" d="M8.42716 21.2862C8.52031 19.4951 7.63199 19.173 7.01233 18.998C7.07817 18.9052 7.16603 18.796 7.26447 18.6704C7.58245 18.2826 7.983 17.78 8.30627 16.9993C8.3556 16.8791 8.50379 16.617 8.6956 16.2729C9.51257 14.8148 11.1247 11.9368 10.8067 9.9653C10.5819 8.56197 9.50706 7.63344 6.82561 7.91196C6.83111 7.88476 6.84212 7.85735 6.85292 7.82994C6.97909 7.46962 7.18191 6.99439 7.47808 6.46477C8.65199 4.34059 11.2018 1.37537 15.7422 1.30432C21.2201 1.21155 22.2183 6.63977 22.3991 8.9225C22.1329 8.75876 21.8542 8.61635 21.5654 8.49661C21.1051 8.31107 20.5841 8.15252 20.0631 8.07051C19.5203 7.9887 18.972 7.99967 18.4783 8.15231C17.7051 8.39267 17.091 8.96614 16.8496 10.0583C16.0053 13.963 16.762 15.645 17.3545 16.9611C17.7879 17.9113 17.608 17.5059 17.88 18.2681C17.9793 18.5457 18.0665 18.8072 18.1273 19.0471C18.0624 19.0312 17.9965 19.0203 17.93 19.0144C17.5735 18.9818 17.1568 19.1237 16.8661 19.3311C16.5537 19.555 16.3015 19.9046 16.1588 20.2923C16.0327 20.6529 16.0492 20.9969 16.0547 21.3737C16.093 23.1266 16.082 24.8578 16.0164 26.2668C15.9505 27.6704 15.8354 28.7189 15.6819 29.1121C15.5174 29.5215 15.254 30.1277 14.755 30.5483C14.2725 30.9577 13.5267 31.2036 12.3424 30.9523C11.3059 30.7283 10.6041 30.4119 10.1434 29.9312C9.67727 29.4559 9.41963 28.7787 9.25514 27.8395C9.13997 27.1513 8.97547 25.9499 8.82177 24.7595C8.63547 23.3069 8.47098 21.8163 8.42716 21.2862ZM21.2971 22.1439C19.4932 21.7724 19.312 21.5487 18.7306 20.8114C18.5224 20.5476 18.2991 20.296 18.0616 20.0579C18.0052 19.9997 17.9289 19.9645 17.8478 19.9594C17.7164 19.9484 17.5298 20.0195 17.4145 20.1015C17.261 20.2107 17.1295 20.3965 17.0527 20.6039C16.9815 20.8171 16.9538 21.0792 17.0912 21.2702C17.7657 22.2042 18.5939 22.5972 19.367 22.7283C20.151 22.8647 20.8911 22.7283 21.3357 22.6191C21.5548 22.5643 21.8071 22.4606 21.9716 22.3459C21.8402 22.2803 21.6204 22.2093 21.2971 22.1439ZM21.8181 18.7252C21.9649 18.6006 22.1041 18.4675 22.235 18.3265C22.9201 17.5782 23.3807 16.5953 23.4849 15.4977C23.525 15.0957 23.5159 14.6904 23.4576 14.2906C23.2272 12.6469 23.3149 11.1669 23.3642 10.3969C23.3754 10.1949 23.3864 10.0418 23.3807 9.92187C23.3864 9.88371 23.5122 4.94147 20.6885 2.17803C23.238 1.34248 31.4801 -0.661741 31.0303 8.35999C30.9644 9.67603 29.9171 15.0551 28.3268 18.807C27.8282 19.9866 27.274 20.9969 26.6874 21.6467C26.1994 22.1873 25.7004 22.4496 25.2179 22.2748C24.9545 22.1818 24.6696 21.9634 24.3677 21.6029C23.548 20.6176 22.6977 19.6579 21.8181 18.7252ZM11.7446 1.20059C9.16177 2.33658 7.53863 4.39519 6.65032 6.01189C6.37721 6.49376 6.14603 6.99802 5.95931 7.51917C5.79482 7.97774 5.73448 8.33827 5.762 8.49661C5.762 8.51306 5.76729 8.5295 5.76729 8.54574C5.74528 9.21746 5.82763 9.76901 5.92099 10.348C5.98683 10.7958 6.05797 11.2601 6.07998 11.8061C6.0965 12.325 6.03066 12.8711 5.95931 13.4391C5.78381 14.8862 5.59751 16.4262 6.57347 18.0208C6.55695 18.0427 6.54044 18.0646 6.52414 18.0811C6.48582 18.13 6.44729 18.1793 6.40897 18.223C4.72549 15.5852 3.49718 12.6853 2.79538 10.146C1.98391 7.22442 1.85774 4.84322 2.52672 3.98596C3.68369 2.51684 5.09831 1.71418 6.50784 1.30453C8.5093 0.73084 10.5053 0.949267 11.7446 1.20059ZM22.4321 9.91639C22.4321 10.0583 22.4209 10.2004 22.4156 10.3423C22.3664 11.1342 22.2729 12.6689 22.5197 14.4218C22.5688 14.7604 22.5748 15.0935 22.5417 15.4102C22.4646 16.2587 22.1101 17.0587 21.5328 17.6874C20.9899 18.2826 20.2716 18.6866 19.4818 18.796C19.3391 18.8179 19.1911 18.8232 19.0484 18.8287C18.9768 18.5396 18.8767 18.2402 18.7622 17.9269C18.6047 17.4954 18.5613 17.3202 18.2204 16.5734C17.6829 15.3828 16.9978 13.8647 17.7818 10.2548C17.9297 9.55586 18.3028 9.19532 18.7579 9.05343C19.1032 8.94401 19.5089 8.94401 19.9257 9.00431C20.3644 9.06988 20.8085 9.21177 21.2088 9.37011C21.9005 9.65432 22.4268 9.89446 22.4321 9.91639ZM19.6192 9.52318C19.2694 9.44854 18.7935 9.51264 18.4783 9.68152C18.2975 9.78525 18.1988 9.92187 18.2153 10.0692C18.2314 10.1839 18.3468 10.3478 18.5221 10.4679C18.6866 10.5772 18.9116 10.6592 19.1528 10.6263H19.1585C19.3941 10.5936 19.6026 10.457 19.7506 10.3041C19.8937 10.1513 19.9831 9.98639 19.9752 9.84449C19.9674 9.7026 19.8633 9.5839 19.6192 9.52318ZM6.71637 8.86789C8.88783 8.60013 9.72681 9.19005 9.8748 10.1131C10.1382 11.7623 8.63547 14.4492 7.86804 15.8198C7.65973 16.1858 7.50603 16.4698 7.43468 16.6389C7.35254 16.8247 7.27019 16.9995 7.18254 17.1523C6.61242 15.951 6.7604 14.7167 6.90288 13.5481C6.97423 12.9419 7.04536 12.352 7.02906 11.7785C7.00704 11.1833 6.93019 10.6864 6.85906 10.2111C6.7875 9.76901 6.72166 9.34291 6.71637 8.86789ZM6.4475 19.8173C6.51885 19.8392 6.6012 19.861 6.68334 19.8881C7.01233 19.9811 7.53334 20.123 7.47851 21.2481C7.43447 21.2917 7.29199 21.3353 7.07817 21.3737C6.74368 21.4448 6.29952 21.4557 5.82784 21.4336C5.00537 21.3847 4.12806 21.2097 3.56853 20.9533C2.99269 20.6855 2.51021 20.3634 2.21425 20.0794C3.44976 20.3086 5.32674 20.66 6.4475 19.8173ZM7.59897 9.52318C7.58245 9.62143 7.66481 9.79073 7.80178 9.93283C7.96776 10.1047 8.16041 10.2095 8.36449 10.2322C8.52327 10.2499 8.68904 10.2181 8.85459 10.1293C9.04957 10.0216 9.19247 9.87506 9.19501 9.72769C9.1967 9.62691 9.13298 9.52571 8.97505 9.43568C8.84337 9.36463 8.65707 9.30454 8.44854 9.27186C8.24022 9.24445 8.0427 9.24993 7.89472 9.2883C7.72514 9.32668 7.61569 9.40848 7.59897 9.52318ZM5.87738 19.1456C5.65805 19.3533 4.91772 19.6754 2.43358 19.162C1.9511 19.0638 1.6111 19.0857 1.39177 19.1894C1.10661 19.3258 0.980432 19.5498 1.00245 19.8445C1.01346 20.0248 1.0956 20.2103 1.23278 20.4017C1.55098 20.8386 2.28009 21.3956 3.17391 21.8108C3.83739 22.1165 4.85188 22.3242 5.77873 22.3788C6.32154 22.406 6.84254 22.384 7.26468 22.3022C7.36884 22.2803 7.473 22.2531 7.56636 22.2259C7.643 22.9194 7.75838 23.8913 7.88434 24.8745C8.03804 26.1087 8.20804 27.332 8.323 27.9982C8.52052 29.1285 8.8493 29.9588 9.45816 30.5867C10.067 31.2145 10.9168 31.6132 12.1451 31.8755C13.6804 32.2032 14.6896 31.8428 15.3694 31.2746C16.0384 30.7121 16.3564 29.9639 16.5594 29.4614C16.7622 28.9647 16.8941 27.8015 16.9652 26.3105C17.0143 25.2238 17.0364 23.9404 17.0256 22.6077C17.7166 23.2303 18.4785 23.5361 19.2025 23.6619C20.1618 23.8255 21.0393 23.6672 21.5656 23.5361C21.9496 23.4378 22.4268 23.2246 22.7064 22.9626C22.8709 22.8095 22.9806 22.6297 23.0136 22.4222C23.0462 22.1816 22.9751 21.947 22.7503 21.7395C22.5365 21.5373 22.1416 21.3573 21.4839 21.2206C20.025 20.9204 19.8935 20.7566 19.4769 20.2268C19.3697 20.0921 19.2581 19.961 19.1424 19.8335C19.1477 19.8116 19.1477 19.7899 19.1477 19.768C19.3036 19.7637 19.4592 19.7509 19.6136 19.7296C20.109 19.6589 20.588 19.5018 21.0287 19.2655C21.4235 19.6807 22.4816 20.8219 23.639 22.209C24.0499 22.706 24.478 23.0119 24.9054 23.1648C25.81 23.4869 26.6384 23.1102 27.3951 22.2801C28.0528 21.5483 28.6562 20.4505 29.199 19.1728C30.8332 15.3172 31.9078 9.76332 31.9793 8.40342C32.5385 -2.78087 21.5768 0.828879 19.8332 1.4732C18.7967 0.768791 17.4585 0.331936 15.7259 0.359134C14.8869 0.369886 14.1028 0.473618 13.3844 0.648613C13.0389 0.555845 12.551 0.419222 12.5234 0.408259C12.4576 0.391813 12.381 0.375579 12.2821 0.353652C10.9934 0.0532086 8.63547 -0.285185 6.24469 0.402777C4.66558 0.856077 3.08076 1.7572 1.7811 3.40637C0.9256 4.4985 0.996945 7.19638 1.88526 10.3965C2.6474 13.1494 4.00739 16.3168 5.87738 19.1456Z" fill="white"/>
</g>
<defs>
<clipPath id="clip0_246_2015">
<rect width="32" height="32" fill="white"/>
</clipPath>
</defs>
</svg>
