<svg width="32" height="32" viewBox="0 0 32 32" fill="none" xmlns="http://www.w3.org/2000/svg">
<path d="M28.8287 24.3795L18.0313 1.00923C17.8971 0.721677 17.6891 0.476436 17.4294 0.299464C17.1697 0.122493 16.8679 0.0203718 16.5559 0.00390858C16.2433 -0.0174418 15.9309 0.048971 15.6528 0.195925C15.3746 0.342878 15.1414 0.564746 14.9783 0.837401L3.26743 20.1695C3.08936 20.4614 2.99662 20.799 3.00009 21.1427C3.00357 21.4864 3.1031 21.822 3.28703 22.1101L9.01251 31.1469C9.22912 31.4862 9.54753 31.7449 9.92024 31.8847C10.2929 32.0244 10.7 32.0375 11.0806 31.9222L27.6962 26.9129C27.9463 26.8384 28.1779 26.7099 28.3752 26.5363C28.5725 26.3627 28.7309 26.148 28.8397 25.9066C28.9471 25.6664 29.0017 25.4053 29 25.1415C28.9982 24.8776 28.94 24.6173 28.8295 24.3787L28.8287 24.3795ZM26.4113 25.3818L12.3121 29.6311C11.882 29.7615 11.4691 29.3815 11.5586 28.9391L16.5959 4.35625C16.69 3.89633 17.3132 3.82346 17.5102 4.24911L26.8351 24.4315C26.8763 24.5214 26.8979 24.6194 26.8984 24.7186C26.8989 24.8179 26.8782 24.9161 26.8379 25.0064C26.7975 25.0967 26.7384 25.1771 26.6646 25.2419C26.5909 25.3067 26.5042 25.3544 26.4106 25.3817L26.4113 25.3818Z" fill="white"/>
</svg>
