<svg width="32" height="32" viewBox="0 0 32 32" fill="none" xmlns="http://www.w3.org/2000/svg">
<path d="M28.9684 13.1266C28.9684 11.3824 26.7842 9.72937 23.4352 8.70431C24.2081 5.291 23.8646 2.57537 22.3511 1.70594C22.0022 1.502 21.5944 1.40539 21.149 1.40539V2.6022C21.3958 2.6022 21.5944 2.65051 21.7608 2.74174C22.4906 3.16035 22.8073 4.75431 22.5604 6.80444C22.5014 7.30893 22.4048 7.84024 22.2868 8.3823C21.2348 8.12469 20.0863 7.92612 18.8788 7.79732C18.1543 6.80444 17.4029 5.90281 16.6461 5.11389C18.3957 3.48773 20.038 2.59683 21.1544 2.59683V1.40002C19.6784 1.40002 17.7464 2.45193 15.7929 4.27665C13.8393 2.46266 11.9073 1.42149 10.4314 1.42149V2.6183C11.5423 2.6183 13.1899 3.50384 14.9395 5.11925C14.1881 5.90819 13.4368 6.80444 12.7229 7.79732C11.51 7.92612 10.3616 8.12469 9.30968 8.38766C9.18619 7.85098 9.09499 7.33039 9.03054 6.83128C8.7784 4.78114 9.08959 3.18718 9.81419 2.76321C9.97513 2.6666 10.1844 2.62367 10.4314 2.62367V1.42686C9.98053 1.42686 9.57262 1.52346 9.21847 1.72741C7.71033 2.59683 7.37227 5.30709 8.1504 8.70968C4.81225 9.74012 2.63867 11.3878 2.63867 13.1266C2.63867 14.8709 4.82297 16.5239 8.17188 17.5488C7.39903 20.9622 7.7425 23.6778 9.25604 24.5472C9.6049 24.7511 10.0127 24.8477 10.4636 24.8477C11.9394 24.8477 13.8715 23.7959 15.825 21.9711C17.7785 23.7852 19.7107 24.8264 21.1865 24.8264C21.6373 24.8264 22.0452 24.7298 22.3994 24.5258C23.9075 23.6563 24.2456 20.946 23.4674 17.5436C26.7949 16.5185 28.9684 14.8655 28.9684 13.1266ZM21.9809 9.5469C21.7822 10.2393 21.5354 10.953 21.2562 11.6668C21.0363 11.2375 20.8055 10.8081 20.5532 10.3787C20.3064 9.94942 20.0433 9.53081 19.7804 9.12293C20.5424 9.23563 21.2777 9.37517 21.9809 9.5469ZM19.5227 15.2626C19.1041 15.9872 18.6749 16.6741 18.2294 17.3128C17.4297 17.3825 16.6194 17.4201 15.8036 17.4201C14.9931 17.4201 14.1827 17.3825 13.3885 17.3181C12.943 16.6794 12.5083 15.9979 12.0897 15.2787C11.6818 14.5756 11.3115 13.8618 10.9734 13.1428C11.3061 12.4235 11.6818 11.7043 12.0844 11.0013C12.503 10.2768 12.9322 9.58984 13.3777 8.95118C14.1774 8.88141 14.9877 8.84385 15.8036 8.84385C16.614 8.84385 17.4244 8.88141 18.2186 8.94582C18.6641 9.58448 19.0989 10.266 19.5174 10.9852C19.9254 11.6883 20.2956 12.4021 20.6338 13.1213C20.2956 13.8404 19.9254 14.5596 19.5227 15.2626ZM21.2562 14.565C21.538 15.2644 21.7852 15.9772 21.9969 16.7009C21.2938 16.8726 20.5532 17.0176 19.7858 17.1303C20.0487 16.7171 20.3117 16.2931 20.5586 15.8583C20.8055 15.429 21.0363 14.9942 21.2562 14.565ZM15.8142 20.2914C15.3151 19.7761 14.816 19.2018 14.3223 18.574C14.8053 18.5954 15.299 18.6115 15.7982 18.6115C16.3027 18.6115 16.8018 18.6008 17.2902 18.574C16.8295 19.1726 16.3368 19.7459 15.8142 20.2914ZM11.8213 17.1303C11.0593 17.0176 10.324 16.878 9.62098 16.7063C9.81947 16.0139 10.0665 15.3001 10.3455 14.5863C10.5656 15.0157 10.7963 15.4451 11.0485 15.8744C11.3007 16.3038 11.5584 16.7224 11.8213 17.1303ZM15.7875 5.96185C16.2866 6.47706 16.7857 7.05132 17.2794 7.67924C16.7964 7.65777 16.3027 7.64168 15.8036 7.64168C15.299 7.64168 14.7999 7.65241 14.3116 7.67924C14.7723 7.0806 15.2649 6.5073 15.7875 5.96185ZM11.8159 9.12293C11.553 9.53617 11.2901 9.96015 11.0432 10.3948C10.7963 10.8242 10.5656 11.2536 10.3455 11.6829C10.0637 10.9835 9.81656 10.2706 9.6049 9.5469C10.3079 9.38054 11.0485 9.23563 11.8159 9.12293ZM6.95896 15.8422C5.05913 15.0318 3.83011 13.9692 3.83011 13.1266C3.83011 12.284 5.05913 11.216 6.95896 10.411C7.42051 10.2124 7.92503 10.0353 8.44562 9.86892C8.75152 10.9208 9.15403 12.0156 9.65314 13.1374C9.15943 14.2537 8.7622 15.3431 8.4617 16.3897C7.93043 16.2232 7.42591 16.0408 6.95896 15.8422ZM9.84636 23.5114C9.11647 23.0929 8.79977 21.4989 9.04674 19.4487C9.10579 18.9443 9.20227 18.4129 9.32036 17.8708C10.3724 18.1285 11.5208 18.3271 12.7283 18.4559C13.4528 19.4487 14.2042 20.3503 14.961 21.1392C13.2114 22.7655 11.5691 23.6563 10.4528 23.6563C10.2113 23.651 10.0074 23.6027 9.84636 23.5114ZM22.5766 19.4219C22.8287 21.472 22.5175 23.066 21.7929 23.49C21.632 23.5866 21.4227 23.6295 21.1757 23.6295C20.0648 23.6295 18.4172 22.744 16.6676 21.1286C17.419 20.3396 18.1704 19.4434 18.8842 18.4505C20.0971 18.3217 21.2456 18.1231 22.2974 17.8601C22.4209 18.4022 22.5175 18.9228 22.5766 19.4219ZM24.6428 15.8422C24.1812 16.0408 23.6767 16.218 23.1561 16.3843C22.8502 15.3324 22.4477 14.2376 21.9486 13.1159C22.4424 11.9996 22.8395 10.9101 23.14 9.86354C23.6714 10.0299 24.1758 10.2124 24.6482 10.411C26.548 11.2213 27.777 12.284 27.777 13.1266C27.7716 13.9692 26.5426 15.0372 24.6428 15.8422Z" fill="white"/>
<path d="M15.7988 15.579C17.1534 15.579 18.2515 14.481 18.2515 13.1263C18.2515 11.7718 17.1534 10.6737 15.7988 10.6737C14.4443 10.6737 13.3462 11.7718 13.3462 13.1263C13.3462 14.481 14.4443 15.579 15.7988 15.579ZM3.83489 29.0705H3.02525V30.4648H2.56836V27.018H3.70942C4.09766 27.018 4.39595 27.1064 4.60427 27.2832C4.81418 27.4598 4.91914 27.7171 4.91914 28.0548C4.91914 28.2695 4.86074 28.4565 4.74395 28.616C4.62874 28.7754 4.46776 28.8945 4.26101 28.9734L5.07065 30.4364V30.4648H4.58297L3.83489 29.0705ZM3.02525 28.6988H3.72363C3.94932 28.6988 4.12844 28.6404 4.26101 28.5236C4.39516 28.4068 4.46223 28.2506 4.46223 28.0548C4.46223 27.8418 4.39831 27.6785 4.27048 27.5648C4.14422 27.4512 3.96115 27.3936 3.72125 27.392H3.02525V28.6988ZM6.55265 30.5122C6.2054 30.5122 5.92288 30.3986 5.70509 30.1713C5.48729 29.9424 5.3784 29.637 5.3784 29.2552V29.1746C5.3784 28.9206 5.42653 28.6941 5.5228 28.4953C5.62066 28.2947 5.75639 28.1385 5.92999 28.0265C6.10518 27.9129 6.29456 27.856 6.49816 27.856C6.83119 27.856 7.09005 27.9657 7.27462 28.185C7.45931 28.4044 7.5516 28.7185 7.5516 29.1272V29.3095H5.81635C5.82267 29.5621 5.89606 29.7665 6.03652 29.9228C6.17856 30.0773 6.35848 30.1547 6.57629 30.1547C6.73098 30.1547 6.86191 30.1232 6.9692 30.06C7.07661 29.9969 7.17045 29.9133 7.25098 29.8091L7.51848 30.0174C7.30378 30.3472 6.98192 30.5122 6.55265 30.5122ZM6.49816 28.2159C6.3214 28.2159 6.17304 28.2806 6.05309 28.4099C5.93315 28.5379 5.85897 28.7178 5.83056 28.9497H7.11369V28.9166C7.10109 28.6941 7.04108 28.522 6.9338 28.4005C6.82639 28.2774 6.68118 28.2159 6.49816 28.2159ZM9.64202 30.4648C9.6167 30.4143 9.59618 30.3244 9.58045 30.1949C9.3768 30.4064 9.13378 30.5122 8.85129 30.5122C8.59879 30.5122 8.39129 30.4412 8.22868 30.2991C8.06775 30.1555 7.98723 29.974 7.98723 29.7546C7.98723 29.488 8.08827 29.2812 8.29025 29.1344C8.49378 28.986 8.77952 28.9118 9.14723 28.9118H9.57337V28.7107C9.57337 28.5575 9.52753 28.436 9.43608 28.3461C9.34452 28.2545 9.20951 28.2088 9.03118 28.2088C8.87493 28.2088 8.744 28.2482 8.63827 28.3271C8.53254 28.406 8.47962 28.5015 8.47962 28.6136H8.03931C8.03931 28.4858 8.08431 28.3627 8.1742 28.2442C8.26577 28.1243 8.38889 28.0296 8.54358 27.9601C8.69984 27.8908 8.87097 27.856 9.05722 27.856C9.35244 27.856 9.58357 27.9301 9.75087 28.0786C9.91816 28.2254 10.0049 28.4282 10.0113 28.6869V29.8659C10.0113 30.1011 10.0413 30.2881 10.1013 30.4269V30.4648H9.64202ZM8.91525 30.1311C9.05254 30.1311 9.18275 30.0956 9.30588 30.0245C9.42888 29.9535 9.51805 29.8612 9.57337 29.7475V29.222H9.23003C8.69347 29.222 8.42514 29.379 8.42514 29.6931C8.42514 29.8304 8.47098 29.9378 8.56243 30.015C8.65399 30.0923 8.7716 30.1311 8.91525 30.1311ZM11.7252 30.1547C11.8815 30.1547 12.0181 30.1073 12.1348 30.0126C12.2516 29.918 12.3163 29.7996 12.3289 29.6575H12.7433C12.7353 29.8043 12.6848 29.944 12.5917 30.0766C12.4986 30.2092 12.3739 30.3149 12.2176 30.3938C12.0629 30.4728 11.8989 30.5122 11.7252 30.5122C11.3765 30.5122 11.0987 30.3962 10.8919 30.1642C10.6868 29.9306 10.5842 29.6118 10.5842 29.2078V29.1344C10.5842 28.885 10.6299 28.6633 10.7215 28.4692C10.8131 28.275 10.944 28.1243 11.1145 28.017C11.2865 27.9096 11.4893 27.856 11.7228 27.856C12.0101 27.856 12.2485 27.942 12.4378 28.1141C12.6288 28.2861 12.7305 28.5094 12.7433 28.784H12.3289C12.3163 28.6183 12.2532 28.4825 12.1395 28.3768C12.0275 28.2695 11.8886 28.2159 11.7228 28.2159C11.5003 28.2159 11.3275 28.2963 11.2044 28.4573C11.083 28.6167 11.0221 28.848 11.0221 29.151V29.2338C11.0221 29.5289 11.083 29.7562 11.2044 29.9156C11.326 30.075 11.4996 30.1547 11.7252 30.1547ZM13.8298 27.2832V27.9034H14.3081V28.2419H13.8298V29.8304C13.8298 29.933 13.8512 30.0102 13.8938 30.0623C13.9364 30.1129 14.009 30.1382 14.1116 30.1382C14.162 30.1382 14.2315 30.1287 14.3198 30.1097V30.4648C14.2046 30.4964 14.0926 30.5122 13.9837 30.5122C13.7881 30.5122 13.6404 30.453 13.541 30.3346C13.4416 30.2163 13.3919 30.0482 13.3919 29.8304V28.2419H12.9254V27.9034H13.3919V27.2832H13.8298ZM18.7421 30.4648H18.2851L16.5499 27.8087V30.4648H16.0931V27.018H16.5499L18.2899 29.686V27.018H18.7421V30.4648ZM21.0621 30.4648C21.0368 30.4143 21.0163 30.3244 21.0005 30.1949C20.7969 30.4064 20.5539 30.5122 20.2714 30.5122C20.0189 30.5122 19.8113 30.4412 19.6488 30.2991C19.4878 30.1555 19.4073 29.974 19.4073 29.7546C19.4073 29.488 19.5082 29.2812 19.7103 29.1344C19.9139 28.986 20.1996 28.9118 20.5673 28.9118H20.9935V28.7107C20.9935 28.5575 20.9476 28.436 20.8561 28.3461C20.7646 28.2545 20.6296 28.2088 20.4513 28.2088C20.295 28.2088 20.1641 28.2482 20.0584 28.3271C19.9526 28.406 19.8997 28.5015 19.8997 28.6136H19.4594C19.4594 28.4858 19.5044 28.3627 19.5943 28.2442C19.6859 28.1243 19.809 28.0296 19.9637 27.9601C20.1199 27.8908 20.2911 27.856 20.4773 27.856C20.7724 27.856 21.0037 27.9301 21.171 28.0786C21.3382 28.2254 21.425 28.4282 21.4314 28.6869V29.8659C21.4314 30.1011 21.4614 30.2881 21.5214 30.4269V30.4648H21.0621ZM20.3353 30.1311C20.4726 30.1311 20.6028 30.0956 20.726 30.0245C20.849 29.9535 20.9381 29.8612 20.9935 29.7475V29.222H20.6501C20.1136 29.222 19.8452 29.379 19.8452 29.6931C19.8452 29.8304 19.8911 29.9378 19.9825 30.015C20.0741 30.0923 20.1917 30.1311 20.3353 30.1311ZM22.7121 27.2832V27.9034H23.1903V28.2419H22.7121V29.8304C22.7121 29.933 22.7335 30.0102 22.7761 30.0623C22.8187 30.1129 22.8913 30.1382 22.9939 30.1382C23.0443 30.1382 23.1138 30.1287 23.2022 30.1097V30.4648C23.0869 30.4964 22.9749 30.5122 22.8659 30.5122C22.6703 30.5122 22.5227 30.453 22.4232 30.3346C22.3239 30.2163 22.2742 30.0482 22.2742 29.8304V28.2419H21.8078V27.9034H22.2742V27.2832H22.7121ZM24.1799 30.4648H23.7419V27.9034H24.1799V30.4648ZM23.7064 27.2239C23.7064 27.153 23.7277 27.093 23.7703 27.044C23.8145 26.995 23.8792 26.9707 23.9644 26.9707C24.0497 26.9707 24.1144 26.995 24.1586 27.044C24.2027 27.093 24.2248 27.153 24.2248 27.2239C24.2248 27.2949 24.2027 27.3541 24.1586 27.4015C24.1144 27.4488 24.0497 27.4726 23.9644 27.4726C23.8792 27.4726 23.8145 27.4488 23.7703 27.4015C23.7277 27.3541 23.7064 27.2949 23.7064 27.2239ZM25.7281 29.8707L26.3625 27.9034H26.81L25.8915 30.4648H25.5576L24.6297 27.9034H25.0771L25.7281 29.8707ZM28.2611 30.5122C27.914 30.5122 27.6315 30.3986 27.4137 30.1713C27.1958 29.9424 27.087 29.637 27.087 29.2552V29.1746C27.087 28.9206 27.1351 28.6941 27.2314 28.4953C27.3292 28.2947 27.4649 28.1385 27.6385 28.0265C27.8138 27.9129 28.0031 27.856 28.2067 27.856C28.5397 27.856 28.7985 27.9657 28.9832 28.185C29.1678 28.4044 29.2602 28.7185 29.2602 29.1272V29.3095H27.5249C27.5313 29.5621 27.6046 29.7665 27.7451 29.9228C27.8871 30.0773 28.0671 30.1547 28.2848 30.1547C28.4395 30.1547 28.5705 30.1232 28.6778 30.06C28.7851 29.9969 28.8791 29.9133 28.9596 29.8091L29.2271 30.0174C29.0124 30.3472 28.6904 30.5122 28.2611 30.5122ZM28.2067 28.2159C28.03 28.2159 27.8816 28.2806 27.7617 28.4099C27.6417 28.5379 27.5675 28.7178 27.5392 28.9497H28.8222V28.9166C28.8096 28.6941 28.7496 28.522 28.6423 28.4005C28.535 28.2774 28.3898 28.2159 28.2067 28.2159Z" fill="white"/>
</svg>
