<svg width="32" height="32" viewBox="0 0 32 32" fill="none" xmlns="http://www.w3.org/2000/svg">
<path d="M16.0004 18.8499C17.5744 18.8499 18.8504 17.5739 18.8504 15.9999C18.8504 14.4259 17.5744 13.1499 16.0004 13.1499C14.4264 13.1499 13.1504 14.4259 13.1504 15.9999C13.1504 17.5739 14.4264 18.8499 16.0004 18.8499Z" fill="white"/>
<path d="M26.8246 11.2999C26.2746 11.0999 25.6996 10.8999 25.0996 10.7249C25.2496 10.1249 25.3746 9.5249 25.4746 8.9499C25.9996 5.6499 25.4246 3.3249 23.8246 2.4249C23.3496 2.1499 22.8246 2.0249 22.2246 2.0249C20.4746 2.0249 18.2496 3.3249 15.9996 5.4999C13.7496 3.3249 11.5246 2.0249 9.77461 2.0249C9.17461 2.0249 8.64961 2.1499 8.17461 2.4249C6.57461 3.3499 5.99961 5.6749 6.52461 8.9499C6.62461 9.5249 6.74961 10.1249 6.89961 10.7249C6.29961 10.8999 5.72461 11.0749 5.17461 11.2999C2.04961 12.4999 0.349609 14.1499 0.349609 15.9999C0.349609 17.8499 2.07461 19.4999 5.17461 20.6999C5.72461 20.8999 6.29961 21.0999 6.89961 21.2749C6.74961 21.8749 6.62461 22.4749 6.52461 23.0499C5.99961 26.3499 6.57461 28.6749 8.17461 29.5749C8.64961 29.8499 9.17461 29.9749 9.77461 29.9749C11.5496 29.9749 13.7746 28.6749 15.9996 26.4999C18.2496 28.6749 20.4746 29.9749 22.2246 29.9749C22.8246 29.9749 23.3496 29.8499 23.8246 29.5749C25.4246 28.6499 25.9996 26.3249 25.4746 23.0499C25.3746 22.4749 25.2496 21.8749 25.0996 21.2749C25.6996 21.0999 26.2746 20.9249 26.8246 20.6999C29.9496 19.4999 31.6496 17.8499 31.6496 15.9999C31.6496 14.1499 29.9496 12.4999 26.8246 11.2999ZM23.1246 3.6749C24.1496 4.2749 24.4996 6.1249 24.0746 8.7499C23.9996 9.2749 23.8746 9.8249 23.7246 10.3999C22.4246 10.0999 21.0496 9.8999 19.5996 9.7749C18.7496 8.5749 17.8746 7.4999 16.9996 6.5249C18.8496 4.6999 20.7246 3.4499 22.2496 3.4499C22.5746 3.4499 22.8746 3.5249 23.1246 3.6749ZM20.3246 18.4999C19.8746 19.2999 19.3496 20.0999 18.7996 20.8999C17.8746 20.9749 16.9496 20.9999 15.9996 20.9999C15.0246 20.9999 14.0996 20.9749 13.1996 20.8999C12.6496 20.0999 12.1496 19.2999 11.6996 18.4999C11.2246 17.6749 10.7746 16.8249 10.3746 15.9999C10.7746 15.1749 11.2246 14.3249 11.6996 13.4999C12.1496 12.6999 12.6746 11.8999 13.2246 11.0999C14.1496 11.0249 15.0746 10.9999 16.0246 10.9999C16.9996 10.9999 17.9246 11.0249 18.8246 11.0999C19.3746 11.8999 19.8746 12.6999 20.3246 13.4999C20.7996 14.3249 21.2496 15.1749 21.6496 15.9999C21.2246 16.8249 20.7996 17.6499 20.3246 18.4999ZM22.3996 17.6749C22.7746 18.5499 23.0746 19.3999 23.3496 20.2499C22.4996 20.4499 21.5996 20.5999 20.6496 20.7249C20.9496 20.2499 21.2746 19.7499 21.5496 19.2249C21.8496 18.6999 22.1246 18.1749 22.3996 17.6749ZM15.9996 24.4499C15.3996 23.7999 14.8246 23.0999 14.2746 22.3749C14.8496 22.3999 15.4246 22.4249 15.9996 22.4249C16.5746 22.4249 17.1496 22.3999 17.7246 22.3749C17.1746 23.0999 16.5996 23.7999 15.9996 24.4499ZM11.3496 20.6999C10.3996 20.5749 9.49961 20.4249 8.64961 20.2249C8.92461 19.3999 9.22461 18.5249 9.59961 17.6499C9.87461 18.1499 10.1496 18.6749 10.4496 19.1749C10.7496 19.7249 11.0496 20.1999 11.3496 20.6999ZM9.59961 14.3249C9.22461 13.4499 8.92461 12.5999 8.64961 11.7499C9.49961 11.5499 10.3996 11.3999 11.3496 11.2749C11.0496 11.7499 10.7246 12.2499 10.4496 12.7749C10.1496 13.2999 9.87461 13.8249 9.59961 14.3249ZM15.9996 7.5499C16.5996 8.1999 17.1746 8.8999 17.7246 9.6249C17.1496 9.5999 16.5746 9.5749 15.9996 9.5749C15.4246 9.5749 14.8496 9.5999 14.2746 9.6249C14.8246 8.8999 15.3996 8.1999 15.9996 7.5499ZM21.5496 12.7999L20.6496 11.2999C21.5996 11.4249 22.4996 11.5749 23.3496 11.7749C23.0746 12.5999 22.7746 13.4749 22.3996 14.3499C22.1246 13.8249 21.8496 13.2999 21.5496 12.7999ZM7.92461 8.7499C7.49961 6.1249 7.84961 4.2749 8.87461 3.6749C9.12461 3.5249 9.42461 3.4499 9.74961 3.4499C11.2496 3.4499 13.1246 4.6749 14.9996 6.5249C14.1246 7.4749 13.2496 8.5749 12.3996 9.7749C10.9496 9.8999 9.57461 10.1249 8.27461 10.3999C8.12461 9.8249 8.02461 9.2749 7.92461 8.7499ZM1.74961 15.9999C1.74961 14.8249 3.17461 13.5749 5.67461 12.6499C6.17461 12.4499 6.72461 12.2749 7.27461 12.1249C7.67461 13.3749 8.17461 14.6999 8.77461 16.0249C8.17461 17.3499 7.64961 18.6499 7.27461 19.8999C3.82461 18.8999 1.74961 17.3999 1.74961 15.9999ZM8.87461 28.3249C7.84961 27.7249 7.49961 25.8749 7.92461 23.2499C7.99961 22.7249 8.12461 22.1749 8.27461 21.5999C9.57461 21.8999 10.9496 22.0999 12.3996 22.2249C13.2496 23.4249 14.1246 24.4999 14.9996 25.4749C13.1496 27.2999 11.2746 28.5499 9.74961 28.5499C9.42461 28.5499 9.12461 28.4749 8.87461 28.3249ZM24.0746 23.2499C24.4996 25.8749 24.1496 27.7249 23.1246 28.3249C22.8746 28.4749 22.5746 28.5499 22.2496 28.5499C20.7496 28.5499 18.8746 27.3249 16.9996 25.4749C17.8746 24.5249 18.7496 23.4249 19.5996 22.2249C21.0496 22.0999 22.4246 21.8749 23.7246 21.5999C23.8746 22.1749 23.9746 22.7249 24.0746 23.2499ZM26.3246 19.3499C25.8246 19.5499 25.2746 19.7249 24.7246 19.8749C24.3246 18.6249 23.8246 17.2999 23.2246 15.9749C23.8246 14.6499 24.3496 13.3499 24.7246 12.0999C28.1746 13.0999 30.2496 14.5999 30.2496 15.9999C30.2496 17.1749 28.7996 18.4249 26.3246 19.3499Z" fill="white"/>
</svg>
