<svg width="32" height="32" viewBox="0 0 32 32" fill="none" xmlns="http://www.w3.org/2000/svg">
<g clip-path="url(#clip0_234_702)">
<path d="M16.002 6.40039C11.7352 6.40039 9.06945 8.53289 8.00195 12.7996C9.60145 10.6669 11.4687 9.86714 13.6015 10.4004C14.8192 10.7039 15.6895 11.5869 16.6532 12.5654C18.2217 14.1571 20.0372 15.9999 24.002 15.9999C28.2685 15.9999 30.9345 13.8671 32.002 9.59939C30.4022 11.7334 28.5352 12.5331 26.4022 11.9999C25.1847 11.6961 24.3155 10.8134 23.3505 9.83489C21.783 8.24314 19.968 6.40039 16.002 6.40039ZM8.00195 15.9999C3.73545 15.9999 1.06945 18.1326 0.00195312 22.4004C1.60145 20.2664 3.46845 19.4666 5.60145 19.9999C6.8192 20.3036 7.68945 21.1864 8.6532 22.1649C10.2217 23.7566 12.0372 25.5994 16.002 25.5994C20.2685 25.5994 22.9345 23.4669 24.002 19.2001C22.4022 21.3329 20.5352 22.1326 18.4022 21.5994C17.1847 21.2959 16.3155 20.4129 15.3505 19.4344C13.783 17.8426 11.968 15.9999 8.00195 15.9999Z" fill="white"/>
</g>
<defs>
<clipPath id="clip0_234_702">
<rect width="32" height="32" fill="white"/>
</clipPath>
</defs>
</svg>
