<svg xmlns="http://www.w3.org/2000/svg" viewBox="0 0 1200 630" role="img">
  <defs>
    <radialGradient id="animate-ui-icons-sky" cx="0.5" cy="0.5" r="0.72" gradientUnits="objectBoundingBox">
      <stop offset="0" stop-color="#08203f"/>
      <stop offset="0.5" stop-color="#050912"/>
      <stop offset="1" stop-color="#03060c"/>
    </radialGradient>

    <radialGradient id="animate-ui-icons-near" gradientUnits="userSpaceOnUse" cx="600" cy="315" r="600"
      gradientTransform="translate(600 315) scale(1 0.74) translate(-600 -315)">
      <stop offset="0.00" stop-color="#000000"/>
      <stop offset="0.13" stop-color="#000000"/>
      <stop offset="0.22" stop-color="#ffffff"/>
      <stop offset="0.48" stop-color="#ffffff"/>
      <stop offset="0.72" stop-color="#000000"/>
      <stop offset="1.00" stop-color="#000000"/>
    </radialGradient>

    <radialGradient id="animate-ui-icons-far" gradientUnits="userSpaceOnUse" cx="600" cy="315" r="600"
      gradientTransform="translate(600 315) scale(1 0.74) translate(-600 -315)">
      <stop offset="0.00" stop-color="#000000"/>
      <stop offset="0.44" stop-color="#000000"/>
      <stop offset="0.62" stop-color="#ffffff" stop-opacity="0.9"/>
      <stop offset="0.82" stop-color="#ffffff" stop-opacity="0.32"/>
      <stop offset="1.00" stop-color="#000000"/>
    </radialGradient>

    <linearGradient id="animate-ui-icons-tile" x1="0" y1="0" x2="0" y2="1">
      <stop offset="0" stop-color="#7cc0ff"/>
      <stop offset="0.42" stop-color="#0d7ef2"/>
      <stop offset="1" stop-color="#08203f"/>
    </linearGradient>

    <linearGradient id="animate-ui-icons-rim" x1="0" y1="0" x2="1" y2="1">
      <stop offset="0" stop-color="#7cc0ff" stop-opacity="0.9"/>
      <stop offset="0.5" stop-color="#1b4d8f" stop-opacity="0.35"/>
      <stop offset="1" stop-color="#7cc0ff" stop-opacity="0.55"/>
    </linearGradient>

    <mask id="animate-ui-icons-mask-near">
      <rect width="1200" height="630" fill="url(#animate-ui-icons-near)"/>
    </mask>
    <mask id="animate-ui-icons-mask-far">
      <rect width="1200" height="630" fill="url(#animate-ui-icons-far)"/>
    </mask>

    <filter id="animate-ui-icons-soft" x="-20%" y="-20%" width="140%" height="140%">
      <feGaussianBlur stdDeviation="3.0"/>
    </filter>
    <filter id="animate-ui-icons-bloom" x="-70%" y="-70%" width="240%" height="240%">
      <feGaussianBlur stdDeviation="26"/>
    </filter>
    <filter id="animate-ui-icons-lift" x="-40%" y="-40%" width="180%" height="180%">
      <feDropShadow dx="0" dy="3" stdDeviation="5" flood-color="#03060c" flood-opacity="0.75"/>
    </filter>
  </defs>

  <rect width="1200" height="630" fill="url(#animate-ui-icons-sky)"/>

  <g fill="none" stroke="#255f9f" stroke-width="1.9" stroke-linecap="round" stroke-linejoin="round">
    <g mask="url(#animate-ui-icons-mask-far)" filter="url(#animate-ui-icons-soft)" opacity="0.62">
      <g transform="translate(45.0 42.5) scale(1.6667)"><circle cx="16" cy="4" r="1"/><path d="m18 19 1-7-6 1"/><path d="m5 8 3-3 5.5 3-2.36 3.5"/><path d="M4.24 14.5a5 5 0 0 0 6.88 6"/><path d="M13.76 17.5a5 5 0 0 0-6.88-6"/></g>
      <g transform="translate(152.0 42.5) scale(1.6667)"><path d="M22 12h-2.48a2 2 0 0 0-1.93 1.46l-2.35 8.36a.25.25 0 0 1-.48 0L9.24 2.18a.25.25 0 0 0-.48 0l-2.35 8.36A2 2 0 0 1 4.49 12H2"/></g>
      <g transform="translate(259.0 42.5) scale(1.6667)"><path d="M5 17H4a2 2 0 0 1-2-2V5a2 2 0 0 1 2-2h16a2 2 0 0 1 2 2v10a2 2 0 0 1-2 2h-1"/><path d="m12 15 5 6H7Z"/></g>
      <g transform="translate(366.0 42.5) scale(1.6667)"><circle cx="12" cy="13" r="8"/><path d="M12 9v4l2 2"/><path d="M5 3 2 6"/><path d="m22 6-3-3"/><path d="M6.38 18.7 4 21"/><path d="M17.64 18.67 20 21"/></g>
      <g transform="translate(473.0 42.5) scale(1.6667)"><path d="M12 5v14"/><path d="m19 12-7 7-7-7"/></g>
      <g transform="translate(580.0 42.5) scale(1.6667)"><path d="m12 19-7-7 7-7"/><path d="M19 12H5"/></g>
      <g transform="translate(687.0 42.5) scale(1.6667)"><path d="m5 12 7-7 7 7"/><path d="M12 19V5"/></g>
      <g transform="translate(794.0 42.5) scale(1.6667)"><path d="m21 16-4 4-4-4"/><path d="M17 20V4"/><path d="m3 8 4-4 4 4"/><path d="M7 4v16"/></g>
      <g transform="translate(901.0 42.5) scale(1.6667)"><path d="M2 10v3"/><path d="M6 6v11"/><path d="M10 3v18"/><path d="M14 8v7"/><path d="M18 5v13"/><path d="M22 10v3"/></g>
      <g transform="translate(1008.0 42.5) scale(1.6667)"><path d="m14 12-8.381 8.38a1 1 0 0 1-3.001-3L11 9"/><path d="M15 15.5a.5.5 0 0 0 .5.5A6.5 6.5 0 0 0 22 9.5a.5.5 0 0 0-.5-.5h-1.672a2 2 0 0 1-1.414-.586l-5.062-5.062a1.205 1.205 0 0 0-1.704 0L9.352 5.648a1.205 1.205 0 0 0 0 1.704l5.062 5.062A2 2 0 0 1 15 13.828z"/></g>
      <g transform="translate(1115.0 42.5) scale(1.6667)"><path d="M13.5 10.5 15 9"/><path d="M4 4v15a1 1 0 0 0 1 1h15"/><path d="M4.293 19.707 6 18"/><path d="m9 15 1.5-1.5"/></g>
      <g transform="translate(45.0 143.5) scale(1.6667)"><path d="M3.85 8.62a4 4 0 0 1 4.78-4.77 4 4 0 0 1 6.74 0 4 4 0 0 1 4.78 4.78 4 4 0 0 1 0 6.74 4 4 0 0 1-4.77 4.78 4 4 0 0 1-6.75 0 4 4 0 0 1-4.78-4.77 4 4 0 0 1 0-6.76Z"/><path d="m9 12 2 2 4-4"/></g>
      <g transform="translate(152.0 143.5) scale(1.6667)"><path d="m11 7-3 5h4l-3 5"/><path d="M14.856 6H16a2 2 0 0 1 2 2v8a2 2 0 0 1-2 2h-2.935"/><path d="M22 14v-4"/><path d="M5.14 18H4a2 2 0 0 1-2-2V8a2 2 0 0 1 2-2h2.936"/></g>
      <g transform="translate(259.0 143.5) scale(1.6667)"><path d="M10 10v4"/><path d="M14 10v4"/><path d="M22 14v-4"/><path d="M6 10v4"/><rect x="2" y="6" width="16" height="12" rx="2"/></g>
      <g transform="translate(366.0 143.5) scale(1.6667)"><path d="M22 14v-4"/><path d="M6 14v-4"/><rect x="2" y="6" width="16" height="12" rx="2"/></g>
      <g transform="translate(794.0 143.5) scale(1.6667)"><path d="M10.268 21a2 2 0 0 0 3.464 0"/><path d="M3.262 15.326A1 1 0 0 0 4 17h16a1 1 0 0 0 .74-1.673C19.41 13.956 18 12.499 18 8A6 6 0 0 0 6 8c0 4.499-1.411 5.956-2.738 7.326"/></g>
      <g transform="translate(901.0 143.5) scale(1.6667)"><path d="M10.268 21a2 2 0 0 0 3.464 0"/><path d="M17 17H4a1 1 0 0 1-.74-1.673C4.59 13.956 6 12.499 6 8a6 6 0 0 1 .258-1.742"/><path d="m2 2 20 20"/><path d="M8.668 3.01A6 6 0 0 1 18 8c0 2.687.77 4.653 1.707 6.05"/></g>
      <g transform="translate(1008.0 143.5) scale(1.6667)"><path d="M10.268 21a2 2 0 0 0 3.464 0"/><path d="M22 8c0-2.3-.8-4.3-2-6"/><path d="M3.262 15.326A1 1 0 0 0 4 17h16a1 1 0 0 0 .74-1.673C19.41 13.956 18 12.499 18 8A6 6 0 0 0 6 8c0 4.499-1.411 5.956-2.738 7.326"/><path d="M4 2C2.8 3.7 2 5.7 2 8"/></g>
      <g transform="translate(1115.0 143.5) scale(1.6667)"><rect width="13" height="7" x="3" y="3" rx="1"/><path d="m22 15-3-3 3-3"/><rect width="13" height="7" x="3" y="14" rx="1"/></g>
      <g transform="translate(45.0 244.5) scale(1.6667)"><rect width="7" height="13" x="3" y="3" rx="1"/><path d="m9 22 3-3 3 3"/><rect width="7" height="13" x="14" y="3" rx="1"/></g>
      <g transform="translate(152.0 244.5) scale(1.6667)"><rect x="14" y="14" width="4" height="6" rx="2"/><rect x="6" y="4" width="4" height="6" rx="2"/><path d="M6 20h4"/><path d="M14 10h4"/><path d="M6 14h2v6"/><path d="M14 4h2v6"/></g>
      <g transform="translate(259.0 244.5) scale(1.6667)"><circle cx="9" cy="9" r="7"/><circle cx="15" cy="15" r="7"/></g>
      <g transform="translate(366.0 244.5) scale(1.6667)"><path d="M10 22V7a1 1 0 0 0-1-1H4a2 2 0 0 0-2 2v12a2 2 0 0 0 2 2h12a2 2 0 0 0 2-2v-5a1 1 0 0 0-1-1H2"/><rect x="14" y="2" width="8" height="8" rx="1"/></g>
      <g transform="translate(794.0 244.5) scale(1.6667)"><path d="M12 8V4H8"/><rect width="16" height="12" x="4" y="8" rx="2"/><path d="M2 14h2"/><path d="M20 14h2"/><path d="M15 13v2"/><path d="M9 13v2"/></g>
      <g transform="translate(901.0 244.5) scale(1.6667)"><path d="M12 6V2H8"/><path d="M15 11v2"/><path d="M2 12h2"/><path d="M20 12h2"/><path d="M20 16a2 2 0 0 1-2 2H8.828a2 2 0 0 0-1.414.586l-2.202 2.202A.71.71 0 0 1 4 20.286V8a2 2 0 0 1 2-2h12a2 2 0 0 1 2 2z"/><path d="M9 11v2"/></g>
      <g transform="translate(1008.0 244.5) scale(1.6667)"><path d="M13.67 8H18a2 2 0 0 1 2 2v4.33"/><path d="M2 14h2"/><path d="M20 14h2"/><path d="M22 22 2 2"/><path d="M8 8H6a2 2 0 0 0-2 2v8a2 2 0 0 0 2 2h12a2 2 0 0 0 1.414-.586"/><path d="M9 13v2"/><path d="M9.67 4H12v2.33"/></g>
      <g transform="translate(1115.0 244.5) scale(1.6667)"><path d="m11 10 3 3"/><path d="M6.5 21A3.5 3.5 0 1 0 3 17.5a2.62 2.62 0 0 1-.708 1.792A1 1 0 0 0 3 21z"/><path d="M9.969 17.031 21.378 5.624a1 1 0 0 0-3.002-3.002L6.967 14.031"/></g>
      <g transform="translate(45.0 345.5) scale(1.6667)"><path d="m16 22-1-4"/><path d="M19 14a1 1 0 0 0 1-1v-1a2 2 0 0 0-2-2h-3a1 1 0 0 1-1-1V4a2 2 0 0 0-4 0v5a1 1 0 0 1-1 1H6a2 2 0 0 0-2 2v1a1 1 0 0 0 1 1"/><path d="M19 14H5l-1.973 6.767A1 1 0 0 0 4 22h16a1 1 0 0 0 .973-1.233z"/><path d="m8 22 1-4"/></g>
      <g transform="translate(152.0 345.5) scale(1.6667)"><path d="M2 8V6a2 2 0 0 1 2-2h16a2 2 0 0 1 2 2v12a2 2 0 0 1-2 2h-6"/><path d="M2 12a9 9 0 0 1 8 8"/><path d="M2 16a5 5 0 0 1 4 4"/><line x1="2" x2="2.01" y1="20" y2="20"/></g>
      <g transform="translate(259.0 345.5) scale(1.6667)"><path d="M16.75 12h3.632a1 1 0 0 1 .894 1.447l-2.034 4.069a1 1 0 0 1-1.708.134l-2.124-2.97"/><path d="M17.106 9.053a1 1 0 0 1 .447 1.341l-3.106 6.211a1 1 0 0 1-1.342.447L3.61 12.3a2.92 2.92 0 0 1-1.3-3.91L3.69 5.6a2.92 2.92 0 0 1 3.92-1.3z"/><path d="M2 19h3.76a2 2 0 0 0 1.8-1.1L9 15"/><path d="M2 21v-4"/><path d="M7 9h.01"/></g>
      <g transform="translate(366.0 345.5) scale(1.6667)"><path d="M3 3v16a2 2 0 0 0 2 2h16"/><path d="M7 16h8"/><path d="M7 11h12"/><path d="M7 6h3"/></g>
      <g transform="translate(794.0 345.5) scale(1.6667)"><path d="M3 3v16a2 2 0 0 0 2 2h16"/><path d="M7 11h8"/><path d="M7 16h12"/><path d="M7 6h3"/></g>
      <g transform="translate(901.0 345.5) scale(1.6667)"><path d="M3 3v16a2 2 0 0 0 2 2h16"/><path d="M18 17V9"/><path d="M13 17V5"/><path d="M8 17v-3"/></g>
      <g transform="translate(1008.0 345.5) scale(1.6667)"><path d="M3 3v16a2 2 0 0 0 2 2h16"/><path d="m19 9-5 5-4-4-3 3"/></g>
      <g transform="translate(1115.0 345.5) scale(1.6667)"><circle cx="7.5" cy="7.5" r=".5" fill="currentColor"/><circle cx="18.5" cy="5.5" r=".5" fill="currentColor"/><circle cx="11.5" cy="11.5" r=".5" fill="currentColor"/><circle cx="7.5" cy="16.5" r=".5" fill="currentColor"/><circle cx="17.5" cy="14.5" r=".5" fill="currentColor"/><path d="M3 3v16a2 2 0 0 0 2 2h16"/></g>
      <g transform="translate(45.0 446.5) scale(1.6667)"><path d="M3 3v16a2 2 0 0 0 2 2h16"/><path d="M7 16c.5-2 1.5-7 4-7 2 0 2 3 4 3 2.5 0 4.5-5 5-7"/></g>
      <g transform="translate(152.0 446.5) scale(1.6667)"><path d="M20 6 9 17l-5-5"/></g>
      <g transform="translate(259.0 446.5) scale(1.6667)"><path d="M18 6 7 17l-5-5"/><path d="m22 10-7.5 7.5L13 16"/></g>
      <g transform="translate(366.0 446.5) scale(1.6667)"><path d="M2 17a5 5 0 0 0 10 0c0-2.76-2.5-5-5-3-2.5-2-5 .24-5 3Z"/><path d="M12 17a5 5 0 0 0 10 0c0-2.76-2.5-5-5-3-2.5-2-5 .24-5 3Z"/><path d="M7 14c3.22-2.91 4.29-8.75 5-12 1.66 2.38 4.94 9 5 12"/><path d="M22 9c-4.29 0-7.14-2.33-10-7 5.71 0 10 4.67 10 7Z"/></g>
      <g transform="translate(794.0 446.5) scale(1.6667)"><path d="m6 9 6 6 6-6"/></g>
      <g transform="translate(901.0 446.5) scale(1.6667)"><path d="m15 18-6-6 6-6"/></g>
      <g transform="translate(1008.0 446.5) scale(1.6667)"><path d="m9 18 6-6-6-6"/></g>
      <g transform="translate(1115.0 446.5) scale(1.6667)"><path d="m18 15-6-6-6 6"/></g>
      <g transform="translate(45.0 547.5) scale(1.6667)"><circle cx="12" cy="12" r="10"/><path d="m9 12 2 2 4-4"/></g>
      <g transform="translate(152.0 547.5) scale(1.6667)"><path d="M21.801 10A10 10 0 1 1 17 3.335"/><path d="m9 11 3 3L22 4"/></g>
      <g transform="translate(259.0 547.5) scale(1.6667)"><circle cx="12" cy="12" r="10"/><path d="M8 12h8"/><path d="M12 8v8"/></g>
      <g transform="translate(366.0 547.5) scale(1.6667)"><circle cx="12" cy="12" r="10"/><path d="m15 9-6 6"/><path d="m9 9 6 6"/></g>
      <g transform="translate(473.0 547.5) scale(1.6667)"><path d="M12 6v6l4 2"/><circle cx="12" cy="12" r="10"/></g>
      <g transform="translate(580.0 547.5) scale(1.6667)"><path d="M17.5 19H9a7 7 0 1 1 6.71-9h1.79a4.5 4.5 0 1 1 0 9Z"/></g>
      <g transform="translate(687.0 547.5) scale(1.6667)"><path d="m16 18 6-6-6-6"/><path d="m8 6-6 6 6 6"/></g>
      <g transform="translate(794.0 547.5) scale(1.6667)"><path d="m16.24 7.76-1.804 5.411a2 2 0 0 1-1.265 1.265L7.76 16.24l1.804-5.411a2 2 0 0 1 1.265-1.265z"/><circle cx="12" cy="12" r="10"/></g>
      <g transform="translate(901.0 547.5) scale(1.6667)"><path d="M12 20v2"/><path d="M12 2v2"/><path d="M17 20v2"/><path d="M17 2v2"/><path d="M2 12h2"/><path d="M2 17h2"/><path d="M2 7h2"/><path d="M20 12h2"/><path d="M20 17h2"/><path d="M20 7h2"/><path d="M7 20v2"/><path d="M7 2v2"/><rect x="4" y="4" width="16" height="16" rx="2"/><rect x="8" y="8" width="8" height="8" rx="1"/></g>
      <g transform="translate(1008.0 547.5) scale(1.6667)"><ellipse cx="12" cy="5" rx="9" ry="3"/><path d="M3 5V19A9 3 0 0 0 21 19V5"/><path d="M3 12A9 3 0 0 0 21 12"/></g>
      <g transform="translate(1115.0 547.5) scale(1.6667)"><path d="M2.062 12.348a1 1 0 0 1 0-.696 10.75 10.75 0 0 1 19.876 0 1 1 0 0 1 0 .696 10.75 10.75 0 0 1-19.876 0"/><circle cx="12" cy="12" r="3"/></g>
    </g>
    <g mask="url(#animate-ui-icons-mask-near)" opacity="0.92">
      <g transform="translate(45.0 42.5) scale(1.6667)"><circle cx="16" cy="4" r="1"/><path d="m18 19 1-7-6 1"/><path d="m5 8 3-3 5.5 3-2.36 3.5"/><path d="M4.24 14.5a5 5 0 0 0 6.88 6"/><path d="M13.76 17.5a5 5 0 0 0-6.88-6"/></g>
      <g transform="translate(152.0 42.5) scale(1.6667)"><path d="M22 12h-2.48a2 2 0 0 0-1.93 1.46l-2.35 8.36a.25.25 0 0 1-.48 0L9.24 2.18a.25.25 0 0 0-.48 0l-2.35 8.36A2 2 0 0 1 4.49 12H2"/></g>
      <g transform="translate(259.0 42.5) scale(1.6667)"><path d="M5 17H4a2 2 0 0 1-2-2V5a2 2 0 0 1 2-2h16a2 2 0 0 1 2 2v10a2 2 0 0 1-2 2h-1"/><path d="m12 15 5 6H7Z"/></g>
      <g transform="translate(366.0 42.5) scale(1.6667)"><circle cx="12" cy="13" r="8"/><path d="M12 9v4l2 2"/><path d="M5 3 2 6"/><path d="m22 6-3-3"/><path d="M6.38 18.7 4 21"/><path d="M17.64 18.67 20 21"/></g>
      <g transform="translate(473.0 42.5) scale(1.6667)"><path d="M12 5v14"/><path d="m19 12-7 7-7-7"/></g>
      <g transform="translate(580.0 42.5) scale(1.6667)"><path d="m12 19-7-7 7-7"/><path d="M19 12H5"/></g>
      <g transform="translate(687.0 42.5) scale(1.6667)"><path d="m5 12 7-7 7 7"/><path d="M12 19V5"/></g>
      <g transform="translate(794.0 42.5) scale(1.6667)"><path d="m21 16-4 4-4-4"/><path d="M17 20V4"/><path d="m3 8 4-4 4 4"/><path d="M7 4v16"/></g>
      <g transform="translate(901.0 42.5) scale(1.6667)"><path d="M2 10v3"/><path d="M6 6v11"/><path d="M10 3v18"/><path d="M14 8v7"/><path d="M18 5v13"/><path d="M22 10v3"/></g>
      <g transform="translate(1008.0 42.5) scale(1.6667)"><path d="m14 12-8.381 8.38a1 1 0 0 1-3.001-3L11 9"/><path d="M15 15.5a.5.5 0 0 0 .5.5A6.5 6.5 0 0 0 22 9.5a.5.5 0 0 0-.5-.5h-1.672a2 2 0 0 1-1.414-.586l-5.062-5.062a1.205 1.205 0 0 0-1.704 0L9.352 5.648a1.205 1.205 0 0 0 0 1.704l5.062 5.062A2 2 0 0 1 15 13.828z"/></g>
      <g transform="translate(1115.0 42.5) scale(1.6667)"><path d="M13.5 10.5 15 9"/><path d="M4 4v15a1 1 0 0 0 1 1h15"/><path d="M4.293 19.707 6 18"/><path d="m9 15 1.5-1.5"/></g>
      <g transform="translate(45.0 143.5) scale(1.6667)"><path d="M3.85 8.62a4 4 0 0 1 4.78-4.77 4 4 0 0 1 6.74 0 4 4 0 0 1 4.78 4.78 4 4 0 0 1 0 6.74 4 4 0 0 1-4.77 4.78 4 4 0 0 1-6.75 0 4 4 0 0 1-4.78-4.77 4 4 0 0 1 0-6.76Z"/><path d="m9 12 2 2 4-4"/></g>
      <g transform="translate(152.0 143.5) scale(1.6667)"><path d="m11 7-3 5h4l-3 5"/><path d="M14.856 6H16a2 2 0 0 1 2 2v8a2 2 0 0 1-2 2h-2.935"/><path d="M22 14v-4"/><path d="M5.14 18H4a2 2 0 0 1-2-2V8a2 2 0 0 1 2-2h2.936"/></g>
      <g transform="translate(259.0 143.5) scale(1.6667)"><path d="M10 10v4"/><path d="M14 10v4"/><path d="M22 14v-4"/><path d="M6 10v4"/><rect x="2" y="6" width="16" height="12" rx="2"/></g>
      <g transform="translate(366.0 143.5) scale(1.6667)"><path d="M22 14v-4"/><path d="M6 14v-4"/><rect x="2" y="6" width="16" height="12" rx="2"/></g>
      <g transform="translate(794.0 143.5) scale(1.6667)"><path d="M10.268 21a2 2 0 0 0 3.464 0"/><path d="M3.262 15.326A1 1 0 0 0 4 17h16a1 1 0 0 0 .74-1.673C19.41 13.956 18 12.499 18 8A6 6 0 0 0 6 8c0 4.499-1.411 5.956-2.738 7.326"/></g>
      <g transform="translate(901.0 143.5) scale(1.6667)"><path d="M10.268 21a2 2 0 0 0 3.464 0"/><path d="M17 17H4a1 1 0 0 1-.74-1.673C4.59 13.956 6 12.499 6 8a6 6 0 0 1 .258-1.742"/><path d="m2 2 20 20"/><path d="M8.668 3.01A6 6 0 0 1 18 8c0 2.687.77 4.653 1.707 6.05"/></g>
      <g transform="translate(1008.0 143.5) scale(1.6667)"><path d="M10.268 21a2 2 0 0 0 3.464 0"/><path d="M22 8c0-2.3-.8-4.3-2-6"/><path d="M3.262 15.326A1 1 0 0 0 4 17h16a1 1 0 0 0 .74-1.673C19.41 13.956 18 12.499 18 8A6 6 0 0 0 6 8c0 4.499-1.411 5.956-2.738 7.326"/><path d="M4 2C2.8 3.7 2 5.7 2 8"/></g>
      <g transform="translate(1115.0 143.5) scale(1.6667)"><rect width="13" height="7" x="3" y="3" rx="1"/><path d="m22 15-3-3 3-3"/><rect width="13" height="7" x="3" y="14" rx="1"/></g>
      <g transform="translate(45.0 244.5) scale(1.6667)"><rect width="7" height="13" x="3" y="3" rx="1"/><path d="m9 22 3-3 3 3"/><rect width="7" height="13" x="14" y="3" rx="1"/></g>
      <g transform="translate(152.0 244.5) scale(1.6667)"><rect x="14" y="14" width="4" height="6" rx="2"/><rect x="6" y="4" width="4" height="6" rx="2"/><path d="M6 20h4"/><path d="M14 10h4"/><path d="M6 14h2v6"/><path d="M14 4h2v6"/></g>
      <g transform="translate(259.0 244.5) scale(1.6667)"><circle cx="9" cy="9" r="7"/><circle cx="15" cy="15" r="7"/></g>
      <g transform="translate(366.0 244.5) scale(1.6667)"><path d="M10 22V7a1 1 0 0 0-1-1H4a2 2 0 0 0-2 2v12a2 2 0 0 0 2 2h12a2 2 0 0 0 2-2v-5a1 1 0 0 0-1-1H2"/><rect x="14" y="2" width="8" height="8" rx="1"/></g>
      <g transform="translate(794.0 244.5) scale(1.6667)"><path d="M12 8V4H8"/><rect width="16" height="12" x="4" y="8" rx="2"/><path d="M2 14h2"/><path d="M20 14h2"/><path d="M15 13v2"/><path d="M9 13v2"/></g>
      <g transform="translate(901.0 244.5) scale(1.6667)"><path d="M12 6V2H8"/><path d="M15 11v2"/><path d="M2 12h2"/><path d="M20 12h2"/><path d="M20 16a2 2 0 0 1-2 2H8.828a2 2 0 0 0-1.414.586l-2.202 2.202A.71.71 0 0 1 4 20.286V8a2 2 0 0 1 2-2h12a2 2 0 0 1 2 2z"/><path d="M9 11v2"/></g>
      <g transform="translate(1008.0 244.5) scale(1.6667)"><path d="M13.67 8H18a2 2 0 0 1 2 2v4.33"/><path d="M2 14h2"/><path d="M20 14h2"/><path d="M22 22 2 2"/><path d="M8 8H6a2 2 0 0 0-2 2v8a2 2 0 0 0 2 2h12a2 2 0 0 0 1.414-.586"/><path d="M9 13v2"/><path d="M9.67 4H12v2.33"/></g>
      <g transform="translate(1115.0 244.5) scale(1.6667)"><path d="m11 10 3 3"/><path d="M6.5 21A3.5 3.5 0 1 0 3 17.5a2.62 2.62 0 0 1-.708 1.792A1 1 0 0 0 3 21z"/><path d="M9.969 17.031 21.378 5.624a1 1 0 0 0-3.002-3.002L6.967 14.031"/></g>
      <g transform="translate(45.0 345.5) scale(1.6667)"><path d="m16 22-1-4"/><path d="M19 14a1 1 0 0 0 1-1v-1a2 2 0 0 0-2-2h-3a1 1 0 0 1-1-1V4a2 2 0 0 0-4 0v5a1 1 0 0 1-1 1H6a2 2 0 0 0-2 2v1a1 1 0 0 0 1 1"/><path d="M19 14H5l-1.973 6.767A1 1 0 0 0 4 22h16a1 1 0 0 0 .973-1.233z"/><path d="m8 22 1-4"/></g>
      <g transform="translate(152.0 345.5) scale(1.6667)"><path d="M2 8V6a2 2 0 0 1 2-2h16a2 2 0 0 1 2 2v12a2 2 0 0 1-2 2h-6"/><path d="M2 12a9 9 0 0 1 8 8"/><path d="M2 16a5 5 0 0 1 4 4"/><line x1="2" x2="2.01" y1="20" y2="20"/></g>
      <g transform="translate(259.0 345.5) scale(1.6667)"><path d="M16.75 12h3.632a1 1 0 0 1 .894 1.447l-2.034 4.069a1 1 0 0 1-1.708.134l-2.124-2.97"/><path d="M17.106 9.053a1 1 0 0 1 .447 1.341l-3.106 6.211a1 1 0 0 1-1.342.447L3.61 12.3a2.92 2.92 0 0 1-1.3-3.91L3.69 5.6a2.92 2.92 0 0 1 3.92-1.3z"/><path d="M2 19h3.76a2 2 0 0 0 1.8-1.1L9 15"/><path d="M2 21v-4"/><path d="M7 9h.01"/></g>
      <g transform="translate(366.0 345.5) scale(1.6667)"><path d="M3 3v16a2 2 0 0 0 2 2h16"/><path d="M7 16h8"/><path d="M7 11h12"/><path d="M7 6h3"/></g>
      <g transform="translate(794.0 345.5) scale(1.6667)"><path d="M3 3v16a2 2 0 0 0 2 2h16"/><path d="M7 11h8"/><path d="M7 16h12"/><path d="M7 6h3"/></g>
      <g transform="translate(901.0 345.5) scale(1.6667)"><path d="M3 3v16a2 2 0 0 0 2 2h16"/><path d="M18 17V9"/><path d="M13 17V5"/><path d="M8 17v-3"/></g>
      <g transform="translate(1008.0 345.5) scale(1.6667)"><path d="M3 3v16a2 2 0 0 0 2 2h16"/><path d="m19 9-5 5-4-4-3 3"/></g>
      <g transform="translate(1115.0 345.5) scale(1.6667)"><circle cx="7.5" cy="7.5" r=".5" fill="currentColor"/><circle cx="18.5" cy="5.5" r=".5" fill="currentColor"/><circle cx="11.5" cy="11.5" r=".5" fill="currentColor"/><circle cx="7.5" cy="16.5" r=".5" fill="currentColor"/><circle cx="17.5" cy="14.5" r=".5" fill="currentColor"/><path d="M3 3v16a2 2 0 0 0 2 2h16"/></g>
      <g transform="translate(45.0 446.5) scale(1.6667)"><path d="M3 3v16a2 2 0 0 0 2 2h16"/><path d="M7 16c.5-2 1.5-7 4-7 2 0 2 3 4 3 2.5 0 4.5-5 5-7"/></g>
      <g transform="translate(152.0 446.5) scale(1.6667)"><path d="M20 6 9 17l-5-5"/></g>
      <g transform="translate(259.0 446.5) scale(1.6667)"><path d="M18 6 7 17l-5-5"/><path d="m22 10-7.5 7.5L13 16"/></g>
      <g transform="translate(366.0 446.5) scale(1.6667)"><path d="M2 17a5 5 0 0 0 10 0c0-2.76-2.5-5-5-3-2.5-2-5 .24-5 3Z"/><path d="M12 17a5 5 0 0 0 10 0c0-2.76-2.5-5-5-3-2.5-2-5 .24-5 3Z"/><path d="M7 14c3.22-2.91 4.29-8.75 5-12 1.66 2.38 4.94 9 5 12"/><path d="M22 9c-4.29 0-7.14-2.33-10-7 5.71 0 10 4.67 10 7Z"/></g>
      <g transform="translate(794.0 446.5) scale(1.6667)"><path d="m6 9 6 6 6-6"/></g>
      <g transform="translate(901.0 446.5) scale(1.6667)"><path d="m15 18-6-6 6-6"/></g>
      <g transform="translate(1008.0 446.5) scale(1.6667)"><path d="m9 18 6-6-6-6"/></g>
      <g transform="translate(1115.0 446.5) scale(1.6667)"><path d="m18 15-6-6-6 6"/></g>
      <g transform="translate(45.0 547.5) scale(1.6667)"><circle cx="12" cy="12" r="10"/><path d="m9 12 2 2 4-4"/></g>
      <g transform="translate(152.0 547.5) scale(1.6667)"><path d="M21.801 10A10 10 0 1 1 17 3.335"/><path d="m9 11 3 3L22 4"/></g>
      <g transform="translate(259.0 547.5) scale(1.6667)"><circle cx="12" cy="12" r="10"/><path d="M8 12h8"/><path d="M12 8v8"/></g>
      <g transform="translate(366.0 547.5) scale(1.6667)"><circle cx="12" cy="12" r="10"/><path d="m15 9-6 6"/><path d="m9 9 6 6"/></g>
      <g transform="translate(473.0 547.5) scale(1.6667)"><path d="M12 6v6l4 2"/><circle cx="12" cy="12" r="10"/></g>
      <g transform="translate(580.0 547.5) scale(1.6667)"><path d="M17.5 19H9a7 7 0 1 1 6.71-9h1.79a4.5 4.5 0 1 1 0 9Z"/></g>
      <g transform="translate(687.0 547.5) scale(1.6667)"><path d="m16 18 6-6-6-6"/><path d="m8 6-6 6 6 6"/></g>
      <g transform="translate(794.0 547.5) scale(1.6667)"><path d="m16.24 7.76-1.804 5.411a2 2 0 0 1-1.265 1.265L7.76 16.24l1.804-5.411a2 2 0 0 1 1.265-1.265z"/><circle cx="12" cy="12" r="10"/></g>
      <g transform="translate(901.0 547.5) scale(1.6667)"><path d="M12 20v2"/><path d="M12 2v2"/><path d="M17 20v2"/><path d="M17 2v2"/><path d="M2 12h2"/><path d="M2 17h2"/><path d="M2 7h2"/><path d="M20 12h2"/><path d="M20 17h2"/><path d="M20 7h2"/><path d="M7 20v2"/><path d="M7 2v2"/><rect x="4" y="4" width="16" height="16" rx="2"/><rect x="8" y="8" width="8" height="8" rx="1"/></g>
      <g transform="translate(1008.0 547.5) scale(1.6667)"><ellipse cx="12" cy="5" rx="9" ry="3"/><path d="M3 5V19A9 3 0 0 0 21 19V5"/><path d="M3 12A9 3 0 0 0 21 12"/></g>
      <g transform="translate(1115.0 547.5) scale(1.6667)"><path d="M2.062 12.348a1 1 0 0 1 0-.696 10.75 10.75 0 0 1 19.876 0 1 1 0 0 1 0 .696 10.75 10.75 0 0 1-19.876 0"/><circle cx="12" cy="12" r="3"/></g>
    </g>
  </g>

  <ellipse cx="600" cy="315" rx="118" ry="118" fill="#0d7ef2" opacity="0.30" filter="url(#animate-ui-icons-bloom)"/>

  <g filter="url(#animate-ui-icons-lift)">
    <rect x="504" y="219" width="192" height="192" rx="44" fill="url(#animate-ui-icons-tile)"/>
    <rect x="504" y="219" width="192" height="192" rx="44" fill="none" stroke="url(#animate-ui-icons-rim)" stroke-width="2"/>
  </g>

  <g fill="none" stroke-linecap="round" stroke-linejoin="round">
    <g transform="translate(496.0 269.0) scale(3.8333)" stroke="#e8f4ff" stroke-width="2.1" opacity="0.16"><path d="M5 12h14"/><path d="m12 5 7 7-7 7"/></g>
    <g transform="translate(524.0 269.0) scale(3.8333)" stroke="#e8f4ff" stroke-width="2.1" opacity="0.34"><path d="M5 12h14"/><path d="m12 5 7 7-7 7"/></g>
    <g transform="translate(554 269) scale(3.8333)" stroke="#ffffff" stroke-width="2.1" filter="url(#animate-ui-icons-lift)"><path d="M5 12h14"/><path d="m12 5 7 7-7 7"/></g>
  </g>
</svg>
