<svg width="48" height="48" viewBox="0 0 48 48" fill="none" xmlns="http://www.w3.org/2000/svg">
<g clip-path="url(#clip0_438_1247)">
<path d="M28.7239 4.11877C30.3504 4.11877 32.0865 5.2938 32.6006 6.74351C33.1139 8.19321 34.3673 9.60029 35.3523 10.0092C36.3373 10.418 38.2141 10.3101 39.5985 9.64923C40.9837 8.9883 43.0396 9.38814 44.189 10.5422C45.3394 11.6964 45.7388 13.759 45.08 15.148C44.6639 16.0242 45.8196 18.0204 44.483 18.0204H28.9393C28.8677 18.0185 28.7959 18.0175 28.7239 18.0175C24.287 18.0175 20.6995 21.6168 20.6994 26.0684C20.6994 30.5109 24.2869 34.1102 28.7239 34.1103C28.7406 34.1103 28.7574 34.11 28.7742 34.1099V34.1113H44.4817C45.8196 34.1113 44.666 36.0981 45.08 36.9716C45.7388 38.3606 45.3394 40.4232 44.189 41.5774C43.0396 42.7306 40.9837 43.1313 39.5985 42.4704C38.215 41.8086 36.3354 41.7007 35.3504 42.1114C34.3654 42.523 33.1139 43.9319 32.6006 45.3789C32.0865 46.8259 30.3504 48 28.7239 48C27.0973 48 25.3614 46.8259 24.8472 45.3789C24.333 43.9319 23.0815 42.5212 22.0956 42.1114C21.1106 41.7016 19.2337 41.8085 17.8485 42.4695C16.4632 43.1304 14.4083 42.7297 13.2579 41.5764C12.1075 40.4223 11.709 38.3597 12.3678 36.9707C13.0266 35.5817 13.1331 33.6986 12.7238 32.7113C12.3144 31.7231 10.9165 30.4639 9.47155 29.9489C8.0266 29.433 6.85547 27.6913 6.85547 26.0593C6.85548 24.4274 8.02661 22.6876 9.47155 22.1744C10.9165 21.6613 12.3127 20.4019 12.722 19.4119C13.1314 18.4218 13.0266 16.5378 12.3678 15.148C11.709 13.7581 12.1075 11.6964 13.2579 10.5422C14.4083 9.38813 16.4641 8.9883 17.8485 9.64923C19.2328 10.3102 21.1106 10.4181 22.0956 10.0092C23.0805 9.60029 24.333 8.19321 24.8472 6.74351C25.3614 5.29381 27.0973 4.1188 28.7239 4.11877Z" fill="#452E72"/>
<path d="M24.4582 0C26.0848 0 27.8208 1.17502 28.335 2.62473C28.8483 4.07443 30.1017 5.48151 31.0866 5.8904C32.0716 6.29927 33.9485 6.19137 35.3328 5.53045C36.7181 4.86952 38.7739 5.26936 39.9234 6.42347C41.0737 7.57762 41.4732 9.64024 40.8144 11.0292C40.3971 11.9078 41.5898 13.9091 40.2176 13.9091H24.8679C24.7322 13.9022 24.5956 13.8987 24.4582 13.8987C20.0213 13.8987 16.4338 17.4981 16.4338 21.9496C16.4338 26.3753 19.9943 29.964 24.408 29.9911V30H40.216C41.5898 30 40.4015 31.9817 40.8144 32.8529C41.4732 34.2418 41.0737 36.3044 39.9234 37.4586C38.7739 38.6118 36.7181 39.0125 35.3328 38.3516C33.9493 37.6898 32.0698 37.5819 31.0848 37.9926C30.0998 38.4042 28.8483 39.8131 28.335 41.2601C27.8208 42.7071 26.0848 43.8813 24.4582 43.8813C22.8317 43.8812 21.0958 42.7071 20.5816 41.2601C20.0674 39.8131 18.8158 38.4024 17.8299 37.9926C16.845 37.5828 14.9681 37.6898 13.5828 38.3507C12.1975 39.0116 10.1426 38.6109 8.99228 37.4577C7.84192 36.3035 7.44342 34.2409 8.10218 32.8519C8.76093 31.463 8.86749 29.5799 8.45814 28.5926C8.04876 27.6043 6.65084 26.3451 5.20592 25.8301C3.76098 25.3142 2.58984 23.5725 2.58984 21.9406C2.58986 20.3086 3.76099 18.5688 5.20592 18.0557C6.65087 17.5425 8.04705 16.2831 8.45641 15.2931C8.86574 14.303 8.76094 12.4191 8.10218 11.0292C7.44342 9.63934 7.84192 7.57762 8.99228 6.42347C10.1426 5.26936 12.1984 4.86952 13.5828 5.53045C14.9672 6.19138 16.845 6.29928 17.8299 5.8904C18.8149 5.48151 20.0674 4.07444 20.5816 2.62473C21.0958 1.17504 22.8317 2.87021e-05 24.4582 0Z" fill="#864FFC"/>
</g>
<defs>
<clipPath id="clip0_438_1247">
<rect width="48" height="48" fill="white"/>
</clipPath>
</defs>
</svg>
