<svg width="48" height="48" viewBox="0 0 48 48" fill="none" xmlns="http://www.w3.org/2000/svg">
<rect width="48" height="48" rx="8" fill="#2A292B"/>
<path d="M6.53271 11.6363C6.53271 10.5041 7.45053 9.5863 8.58272 9.5863H26.4116V12.506C26.4116 13.6382 25.4937 14.556 24.3616 14.556H6.53271V11.6363Z" fill="#00CC99"/>
<path d="M24.9478 25.1167C24.9319 25.2964 24.9225 25.4774 24.9204 25.6587C24.9041 27.1153 25.3379 28.5413 26.1616 29.7427C26.9856 30.9442 28.16 31.8629 29.5249 32.3726C30.8897 32.8822 32.3788 32.9578 33.7886 32.5903C35.0324 32.2661 36.1614 31.6107 37.0571 30.6978C37.2554 30.4957 37.5776 30.4678 37.7935 30.6509L40.6128 33.0415C40.8283 33.2246 40.8555 33.5487 40.6636 33.7563C39.1351 35.4073 37.1631 36.5904 34.979 37.1597C32.6295 37.772 30.1482 37.6447 27.8735 36.7954C25.5989 35.9461 23.6413 34.4159 22.2681 32.4136C20.8948 30.411 20.1724 28.033 20.1997 25.605C20.2015 25.4419 20.2068 25.2791 20.2153 25.1167H24.9478Z" fill="#00CC99"/>
<path d="M11.5024 35.6776H8.58252C7.45033 35.6776 6.53271 34.759 6.53271 33.6268V17.0409L23.7905 17.119L20.2065 22.0106H11.5024V35.6776Z" fill="white"/>
<path d="M27.2925 15.2122C29.5857 14.4141 32.0695 14.342 34.4048 15.0071C36.5244 15.6108 38.4282 16.795 39.9048 18.4192L40.1958 16.4719L41.0845 16.5862C41.3694 16.6226 41.5692 16.8861 41.5269 17.1702L40.687 22.7981C40.6457 23.0736 40.3921 23.2659 40.1157 23.2307L34.0933 22.4592C33.8084 22.4228 33.6085 22.1593 33.6509 21.8752L33.772 21.0647L36.2026 21.3752C35.349 20.5136 34.2849 19.8825 33.1108 19.5481C31.7098 19.1492 30.22 19.1924 28.8442 19.6711C27.5521 20.1208 26.4193 20.934 25.5815 22.011H20.1987C20.5541 21.1142 21.0197 20.259 21.5894 19.467C23.0073 17.4959 24.9992 16.0102 27.2925 15.2122Z" fill="white"/>
</svg>
