<svg width="48" height="48" viewBox="0 0 48 48" fill="none" xmlns="http://www.w3.org/2000/svg">
<g clip-path="url(#clip0_493_1181)">
<path d="M15.1034 8.68876C15.1034 10.2934 16.4034 11.5989 18.0135 11.5989L24.4212 11.5989L24.4212 14.5417L18.0026 14.5417C16.3979 14.5417 15.0925 15.8417 15.0925 17.4518L15.0925 23.7822L15.1034 23.7823L15.1034 30.2009C15.1034 31.8055 16.4034 33.111 18.0135 33.111L30.7626 33.111C32.3672 33.1109 33.6727 31.8109 33.6727 30.2008L33.6727 23.7823L36.6154 23.7823L36.6154 30.2009C36.6154 31.8055 37.9155 33.111 39.5256 33.111L45.9333 33.111L45.9333 36.0537L39.5147 36.0537C37.9101 36.0537 36.6046 37.3538 36.6046 38.9639L36.6045 45.3824L33.6618 45.3825L33.6618 38.9638C33.6618 37.3592 32.3618 36.0537 30.7517 36.0537L18.0026 36.0537C16.398 36.0537 15.0925 37.3538 15.0925 38.9639L15.0925 45.3825L12.1497 45.3825L12.1497 38.9638C12.1497 37.3592 10.8497 36.0537 9.23964 36.0537L2.82102 36.0537L2.82103 33.1109L9.25051 33.111C10.8551 33.111 12.1606 31.8109 12.1606 30.2008L12.1606 23.8704L12.1497 23.8703L12.1497 17.4518C12.1497 15.8471 10.8497 14.5417 9.23961 14.5417L2.82103 14.5417L2.82102 11.5989L9.25049 11.5989C10.8551 11.5989 12.1606 10.2988 12.1606 8.68881L12.1606 2.2702L15.1034 2.2702L15.1034 8.68876ZM33.0847 8.93552C34.2193 10.0702 36.0618 10.074 37.2002 8.93552L41.7389 4.39692L43.8197 6.47775L39.2811 11.0164C38.1464 12.151 38.1426 13.9934 39.2811 15.1319L43.812 19.6628L41.7312 21.7437L37.1925 17.205C36.0579 16.0704 34.2155 16.0665 33.077 17.205L28.5384 21.7436L26.4575 19.6628L30.9961 15.1242C32.1308 13.9895 32.1346 12.1472 30.9962 11.0087L26.4575 6.47005L28.5384 4.38921L33.0847 8.93552Z" fill="#F3F99E"/>
</g>
<defs>
<clipPath id="clip0_493_1181">
<rect width="48" height="48" fill="white"/>
</clipPath>
</defs>
</svg>
