<svg width="36" height="36" viewBox="0 0 36 36" fill="none" xmlns="http://www.w3.org/2000/svg">
<g clip-path="url(#clip0_81_562)">
<path d="M2 24.8401V15.7701L9.695 2.67008C9.915 2.30008 10.39 2.17508 10.76 2.39508L18 6.70508V15.6851L2 24.8401Z" fill="#DA3A52"/>
<path d="M34 24.8401V15.7701L26.305 2.67008C26.085 2.30008 25.61 2.17508 25.24 2.39508L18 6.70508V15.6851L34 24.8401Z" fill="#F68936"/>
<path opacity="0.1" d="M10.115 11.6201L18 15.6851L13.95 18.0001L10.115 11.6201Z" fill="black"/>
<path opacity="0.1" d="M25.885 11.6201L18 15.6851L22.05 18.0001L25.885 11.6201Z" fill="black"/>
<path d="M2 24.84V15.77L9.525 11.64C9.84 11.465 10.24 11.575 10.42 11.89L18 25.005V34L2 24.84Z" fill="#21AB6E"/>
<path d="M34 24.84V15.77L26.475 11.64C26.16 11.465 25.76 11.575 25.58 11.89L18 25.005V34L34 24.84Z" fill="#95D8EF"/>
</g>
<defs>
<clipPath id="clip0_81_562">
<rect width="32" height="32" fill="white" transform="translate(2 2)"/>
</clipPath>
</defs>
</svg>
