<svg width="32" height="32" viewBox="0 0 32 32" fill="none" xmlns="http://www.w3.org/2000/svg">
<rect width="32" height="32" rx="8" fill="#F3C545"/>
<path d="M16.0371 3L28.318 12.7239L27.3134 13.7285L16.0371 4.8L5.00458 13.5355L4 12.531L16.0371 3Z" fill="black"/>
<path d="M14.2446 24.2125C14.2446 23.9735 14.2071 23.7626 14.1321 23.5797C14.0618 23.3922 13.9353 23.2235 13.7524 23.0735C13.5743 22.9235 13.3259 22.7805 13.0071 22.6446C12.6931 22.5086 12.2946 22.3704 11.8118 22.2297C11.3056 22.0797 10.8485 21.9133 10.4407 21.7305C10.0329 21.543 9.68369 21.3297 9.39307 21.0907C9.10244 20.8516 8.87978 20.5774 8.7251 20.268C8.57041 19.9586 8.49307 19.6047 8.49307 19.2063C8.49307 18.8079 8.5751 18.4399 8.73916 18.1024C8.90322 17.7649 9.1376 17.4719 9.44228 17.2235C9.75166 16.9704 10.1196 16.7735 10.5462 16.6329C10.9728 16.4922 11.4485 16.4219 11.9735 16.4219C12.7423 16.4219 13.3938 16.5696 13.9282 16.8649C14.4673 17.1555 14.8774 17.5376 15.1587 18.011C15.4399 18.4797 15.5806 18.9813 15.5806 19.5157H14.2306C14.2306 19.1313 14.1485 18.7915 13.9845 18.4961C13.8204 18.1961 13.572 17.9618 13.2392 17.793C12.9063 17.6196 12.4845 17.5329 11.9735 17.5329C11.4907 17.5329 11.0923 17.6055 10.7782 17.7508C10.4642 17.8961 10.2298 18.093 10.0751 18.3415C9.9251 18.5899 9.8501 18.8735 9.8501 19.1922C9.8501 19.4079 9.89463 19.6047 9.98369 19.7829C10.0774 19.9563 10.2204 20.118 10.4126 20.268C10.6095 20.418 10.8579 20.5563 11.1579 20.6829C11.4626 20.8094 11.8259 20.9313 12.2478 21.0485C12.829 21.2126 13.3306 21.3954 13.7524 21.5969C14.1743 21.7985 14.5212 22.0258 14.7931 22.279C15.0696 22.5274 15.2735 22.811 15.4048 23.1297C15.5407 23.4438 15.6087 23.8001 15.6087 24.1985C15.6087 24.6157 15.5243 24.993 15.3556 25.3305C15.1868 25.668 14.9454 25.9563 14.6313 26.1954C14.3173 26.4344 13.9399 26.6196 13.4993 26.7508C13.0634 26.8774 12.5759 26.9407 12.0368 26.9407C11.5634 26.9407 11.097 26.875 10.6376 26.7438C10.1829 26.6125 9.76807 26.4157 9.39307 26.1532C9.02275 25.8907 8.7251 25.5672 8.5001 25.1829C8.27978 24.7938 8.16963 24.3438 8.16963 23.8329H9.51963C9.51963 24.1844 9.5876 24.4868 9.72353 24.7399C9.85947 24.9883 10.0446 25.1946 10.279 25.3586C10.5181 25.5227 10.7876 25.6446 11.0876 25.7243C11.3923 25.7993 11.7087 25.8368 12.0368 25.8368C12.5103 25.8368 12.911 25.7711 13.2392 25.6399C13.5673 25.5086 13.8157 25.3211 13.9845 25.0774C14.1579 24.8336 14.2446 24.5454 14.2446 24.2125ZM20.9876 22.0118H18.3931L18.379 20.9219H20.7345C21.1235 20.9219 21.4634 20.8563 21.754 20.7251C22.0446 20.5938 22.2696 20.4063 22.429 20.1626C22.5931 19.9141 22.6751 19.6188 22.6751 19.2766C22.6751 18.9016 22.6024 18.5969 22.4571 18.3626C22.3165 18.1235 22.0985 17.9501 21.8032 17.8422C21.5126 17.7297 21.1423 17.6735 20.6923 17.6735H18.6954V26.8H17.3384V16.5626H20.6923C21.2173 16.5626 21.686 16.6165 22.0985 16.7243C22.511 16.8274 22.8602 16.9915 23.1462 17.2165C23.4368 17.4368 23.6571 17.718 23.8071 18.0602C23.9571 18.4024 24.0321 18.8126 24.0321 19.2907C24.0321 19.7126 23.9243 20.0946 23.7087 20.4368C23.4931 20.7743 23.1931 21.0508 22.8087 21.2665C22.429 21.4821 21.9837 21.6204 21.4727 21.6813L20.9876 22.0118ZM20.9243 26.8H17.8587L18.6251 25.6961H20.9243C21.3556 25.6961 21.7212 25.6211 22.0212 25.4711C22.3259 25.3211 22.5579 25.1102 22.7173 24.8383C22.8767 24.5618 22.9563 24.236 22.9563 23.861C22.9563 23.4813 22.8884 23.1532 22.7524 22.8766C22.6165 22.6001 22.4032 22.3868 22.1126 22.2368C21.822 22.0868 21.447 22.0118 20.9876 22.0118H19.054L19.0681 20.9219H21.7118L22.0001 21.3157C22.4923 21.3579 22.9095 21.4985 23.2517 21.7376C23.5938 21.9719 23.854 22.2719 24.0321 22.6376C24.2149 23.0032 24.3063 23.4063 24.3063 23.8469C24.3063 24.4844 24.1657 25.0235 23.8845 25.4641C23.6079 25.9 23.2165 26.2329 22.7102 26.4625C22.204 26.6875 21.6087 26.8 20.9243 26.8Z" fill="black"/>
</svg>
